*
*
G04 PADS 9.5 Build Number: 522968 generated Gerber (RS-274-X) file*
G04 PC Version=2.1*
*
%IN "FOCUSER_pads.pcb"*%
*
%MOIN*%
*
%FSLAX35Y35*%
*
*
*
*
G04 PC Standard Apertures*
*
*
G04 Thermal Relief Aperture macro.*
%AMTER*
1,1,$1,0,0*
1,0,$1-$2,0,0*
21,0,$3,$4,0,0,45*
21,0,$3,$4,0,0,135*
%
*
*
G04 Annular Aperture macro.*
%AMANN*
1,1,$1,0,0*
1,0,$2,0,0*
%
*
*
G04 Odd Aperture macro.*
%AMODD*
1,1,$1,0,0*
1,0,$1-0.005,0,0*
%
*
*
G04 PC Custom Aperture Macros*
*
*
*
*
*
*
G04 PC Aperture Table*
*
%ADD010C,0.001*%
%ADD031C,0.01*%
%ADD036C,0.005*%
*
*
*
*
G04 PC Circuitry*
G04 Layer Name FOCUSER_pads.pcb - circuitry*
%LPD*%
*
*
G04 PC Custom Flashes*
G04 Layer Name FOCUSER_pads.pcb - flashes*
%LPD*%
*
*
G04 PC Circuitry*
G04 Layer Name FOCUSER_pads.pcb - circuitry*
%LPD*%
*
G54D10*
G54D31*
G01X115500Y118500D02*
X119500Y122500D01*
X115500Y126500*
X111500Y122500*
X115500Y118500*
Y122500D02*
Y126500D01*
Y108500D02*
X119500Y112500D01*
X115500Y116500*
X111500Y112500*
X115500Y108500*
Y112500D02*
Y116500D01*
X148543Y178578D02*
X152543Y182578D01*
X148543Y186578*
X144543Y182578*
X148543Y178578*
Y182578D02*
Y186578D01*
Y188422D02*
X152543Y192422D01*
X148543Y196422*
X144543Y192422*
X148543Y188422*
Y192422D02*
Y196422D01*
X140670Y188422D02*
X144670Y192422D01*
X140670Y196422*
X136670Y192422*
X140670Y188422*
Y192422D02*
Y196422D01*
Y178578D02*
X144670Y182578D01*
X140670Y186578*
X136670Y182578*
X140670Y178578*
Y182578D02*
Y186578D01*
X126000Y207200D02*
X134000D01*
X126000Y215200*
X134000*
X126000Y207200*
Y159800D02*
X134000D01*
X126000Y167800*
X134000*
X126000Y159800*
X111815Y145450D02*
X119815D01*
Y153450*
X111815*
Y145450*
X115815Y149450D02*
Y153450D01*
X103942Y126550D02*
X111942D01*
Y134550*
X103942*
Y126550*
X107942Y130550D02*
Y134550D01*
X131500Y126550D02*
X139500D01*
Y134550*
X131500*
Y126550*
X135500Y130550D02*
Y134550D01*
X226000Y197812D02*
X234000Y205812D01*
X226000D02*
X234000Y197812D01*
X226000Y189937D02*
X234000Y197937D01*
X226000D02*
X234000Y189937D01*
X226000Y182063D02*
X234000Y190063D01*
X226000D02*
X234000Y182063D01*
X226000Y174188D02*
X234000Y182188D01*
X226000D02*
X234000Y174188D01*
X226000Y154248D02*
X234000Y162248D01*
X226000D02*
X234000Y154248D01*
X226000Y146373D02*
X234000Y154373D01*
X226000D02*
X234000Y146373D01*
X226000Y138500D02*
X234000Y146500D01*
X226000D02*
X234000Y138500D01*
X226000Y130627D02*
X234000Y138627D01*
X226000D02*
X234000Y130627D01*
X226000Y122752D02*
X234000Y130752D01*
X226000D02*
X234000Y122752D01*
X226000Y111000D02*
X234000Y119000D01*
X226000D02*
X234000Y111000D01*
X116000Y101000D02*
X124000Y109000D01*
X116000D02*
X124000Y101000D01*
X143500Y213500D02*
X151500Y221500D01*
X143500D02*
X151500Y213500D01*
X134500Y103000D02*
X142500D01*
X138500Y99000D02*
Y107000D01*
X144000Y106500D02*
X152000D01*
X148000Y102500D02*
Y110500D01*
X183500Y103500D02*
X191500D01*
X187500Y99500D02*
Y107500D01*
X152500Y106500D02*
X160500D01*
X156500Y102500D02*
Y110500D01*
X175500Y105500D02*
X183500D01*
X179500Y101500D02*
Y109500D01*
X122500Y145500D02*
X130500D01*
X126500Y141500D02*
Y149500D01*
X127000Y119500D02*
X135000D01*
X131000Y115500D02*
Y123500D01*
X151000Y149000D02*
X159000D01*
X155000Y145000D02*
Y153000D01*
X164000Y147000D02*
X172000D01*
X168000Y143000D02*
Y151000D01*
X165500Y127500D02*
X173500D01*
X169500Y123500D02*
Y131500D01*
X167000Y120500D02*
X175000D01*
X171000Y116500D02*
Y124500D01*
X155500Y120500D02*
X163500D01*
X159500Y116500D02*
Y124500D01*
X180500Y137500D02*
X188500D01*
X184500Y133500D02*
Y141500D01*
X207000Y118000D02*
X215000D01*
X211000Y114000D02*
Y122000D01*
X206000Y146500D02*
X214000D01*
X210000Y142500D02*
Y150500D01*
X203500Y110000D02*
X211500D01*
X207500Y106000D02*
Y114000D01*
X196500Y127000D02*
X204500D01*
X200500Y123000D02*
Y131000D01*
X102000Y187000D02*
X110000D01*
X106000Y183000D02*
Y191000D01*
X118000Y156500D02*
X126000D01*
X122000Y152500D02*
Y160500D01*
X172000Y187500D02*
X180000D01*
X176000Y183500D02*
Y191500D01*
X180000Y161500D02*
X188000D01*
X184000Y157500D02*
Y165500D01*
X150500Y164500D02*
X158500D01*
X154500Y160500D02*
Y168500D01*
X177000Y189500D02*
X185000D01*
X181000Y185500D02*
Y193500D01*
X173500Y167500D02*
X181500D01*
X177500Y163500D02*
Y171500D01*
X197500Y155000D02*
X205500D01*
X201500Y151000D02*
Y159000D01*
X206000Y151500D02*
X214000D01*
X210000Y147500D02*
Y155500D01*
Y168000D02*
X218000D01*
X214000Y164000D02*
Y172000D01*
X217000Y177000D02*
X225000D01*
X221000Y173000D02*
Y181000D01*
X217000Y172000D02*
X225000D01*
X221000Y168000D02*
Y176000D01*
X197000Y174000D02*
X205000D01*
X201000Y170000D02*
Y178000D01*
X204000Y169500D02*
X212000D01*
X208000Y165500D02*
Y173500D01*
X199500Y169500D02*
X207500D01*
X203500Y165500D02*
Y173500D01*
X171500Y194000D02*
X179500D01*
X175500Y190000D02*
Y198000D01*
X171000Y217500D02*
X179000D01*
X175000Y213500D02*
Y221500D01*
X171000Y207500D02*
X179000D01*
X175000Y203500D02*
Y211500D01*
X171000Y212500D02*
X179000D01*
X175000Y208500D02*
Y216500D01*
X177000Y201000D02*
X185000D01*
X181000Y197000D02*
Y205000D01*
X199000Y201000D02*
X207000D01*
X203000Y197000D02*
Y205000D01*
X217000Y214000D02*
X225000D01*
X221000Y210000D02*
Y218000D01*
X200500Y216500D02*
X208500D01*
X204500Y212500D02*
Y220500D01*
X195000Y216500D02*
X203000D01*
X199000Y212500D02*
Y220500D01*
X194500Y201000D02*
X202500D01*
X198500Y197000D02*
Y205000D01*
X190000Y201000D02*
X198000D01*
X194000Y197000D02*
Y205000D01*
X240000Y244000D02*
X498000D01*
X240000Y220000D02*
X498000D01*
X240000Y196000D02*
X498000D01*
X240000Y172000D02*
X498000D01*
X240000Y148000D02*
X498000D01*
X240000Y124000D02*
X498000D01*
X240000Y100000D02*
X498000D01*
X240000Y244000D02*
Y100000D01*
X324000Y244000D02*
Y100000D01*
X360000Y244000D02*
Y100000D01*
X396000Y244000D02*
Y100000D01*
X450000Y244000D02*
Y100000D01*
X498000Y244000D02*
Y100000D01*
X275500Y232750D02*
X274955Y233500D01*
X274136Y233875*
X273045*
X272227Y233500*
X271682Y232750*
Y232000*
X271955Y231250*
X272227Y230875*
X272773Y230500*
X274409Y229750*
X274955Y229375*
X275227Y229000*
X275500Y228250*
Y227125*
X274955Y226375*
X274136Y226000*
X273045*
X272227Y226375*
X271682Y227125*
X277955Y233875D02*
Y226000D01*
X284227Y233875D02*
X280409Y226000D01*
Y233875D02*
X284227D01*
X280409Y226000D02*
X284227D01*
X286682Y233875D02*
Y226000D01*
Y233875D02*
X290227D01*
X286682Y230125D02*
X288864D01*
X286682Y226000D02*
X290227D01*
X333864Y233875D02*
X333318Y233500D01*
X332773Y232750*
X332500Y232000*
X332227Y230875*
Y229000*
X332500Y227875*
X332773Y227125*
X333318Y226375*
X333864Y226000*
X334955*
X335500Y226375*
X336045Y227125*
X336318Y227875*
X336591Y229000*
Y230875*
X336318Y232000*
X336045Y232750*
X335500Y233500*
X334955Y233875*
X333864*
X334682Y227500D02*
X336318Y225250D01*
X340955Y233875D02*
Y226000D01*
X339045Y233875D02*
X342864D01*
X345318D02*
X347500Y230125D01*
Y226000*
X349682Y233875D02*
X347500Y230125D01*
X372045Y232750D02*
X371500Y233500D01*
X370682Y233875*
X369591*
X368773Y233500*
X368227Y232750*
Y232000*
X368500Y231250*
X368773Y230875*
X369318Y230500*
X370955Y229750*
X371500Y229375*
X371773Y229000*
X372045Y228250*
Y227125*
X371500Y226375*
X370682Y226000*
X369591*
X368773Y226375*
X368227Y227125*
X374500Y233875D02*
X376682Y230125D01*
Y226000*
X378864Y233875D02*
X376682Y230125D01*
X381318Y233875D02*
Y226000D01*
Y233875D02*
X383500Y226000D01*
X385682Y233875D02*
X383500Y226000D01*
X385682Y233875D02*
Y226000D01*
X407500Y233875D02*
Y226000D01*
Y233875D02*
X409955D01*
X410773Y233500*
X411045Y233125*
X411318Y232375*
Y231250*
X411045Y230500*
X410773Y230125*
X409955Y229750*
X407500*
X413773Y233875D02*
Y226000D01*
X417045*
X421682Y233875D02*
X419500Y226000D01*
X421682Y233875D02*
X423864Y226000D01*
X420318Y228625D02*
X423045D01*
X428227Y233875D02*
Y226000D01*
X426318Y233875D02*
X430136D01*
X432591D02*
Y226000D01*
Y233875D02*
X436136D01*
X432591Y230125D02*
X434773D01*
X432591Y226000D02*
X436136D01*
X438591Y233875D02*
Y226000D01*
Y233875D02*
X440500D01*
X441318Y233500*
X441864Y232750*
X442136Y232000*
X442409Y230875*
Y229000*
X442136Y227875*
X441864Y227125*
X441318Y226375*
X440500Y226000*
X438591*
X466682Y233875D02*
Y226000D01*
X464773Y233875D02*
X468591D01*
X472682D02*
X472136Y233500D01*
X471591Y232750*
X471318Y232000*
X471045Y230875*
Y229000*
X471318Y227875*
X471591Y227125*
X472136Y226375*
X472682Y226000*
X473773*
X474318Y226375*
X474864Y227125*
X475136Y227875*
X475409Y229000*
Y230875*
X475136Y232000*
X474864Y232750*
X474318Y233500*
X473773Y233875*
X472682*
X477864D02*
Y226000D01*
X481136*
X247636Y209875D02*
X246818Y209500D01*
X246273Y208375*
X246000Y206500*
Y205375*
X246273Y203500*
X246818Y202375*
X247636Y202000*
X248182*
X249000Y202375*
X249545Y203500*
X249818Y205375*
Y206500*
X249545Y208375*
X249000Y209500*
X248182Y209875*
X247636*
X252545Y202750D02*
X252273Y202375D01*
X252545Y202000*
X252818Y202375*
X252545Y202750*
X258000Y209875D02*
X255273Y204625D01*
X259364*
X258000Y209875D02*
Y202000D01*
X265364Y207250D02*
X265091Y206125D01*
X264545Y205375*
X263727Y205000*
X263455*
X262636Y205375*
X262091Y206125*
X261818Y207250*
Y207625*
X262091Y208750*
X262636Y209500*
X263455Y209875*
X263727*
X264545Y209500*
X265091Y208750*
X265364Y207250*
Y205375*
X265091Y203500*
X264545Y202375*
X263727Y202000*
X263182*
X262364Y202375*
X262091Y203125*
X271364Y207250D02*
X271091Y206125D01*
X270545Y205375*
X269727Y205000*
X269455*
X268636Y205375*
X268091Y206125*
X267818Y207250*
Y207625*
X268091Y208750*
X268636Y209500*
X269455Y209875*
X269727*
X270545Y209500*
X271091Y208750*
X271364Y207250*
Y205375*
X271091Y203500*
X270545Y202375*
X269727Y202000*
X269182*
X268364Y202375*
X268091Y203125*
X275182Y209875D02*
X274364Y209500D01*
X274091Y208750*
Y208000*
X274364Y207250*
X274909Y206875*
X276000Y206500*
X276818Y206125*
X277364Y205375*
X277636Y204625*
Y203500*
X277364Y202750*
X277091Y202375*
X276273Y202000*
X275182*
X274364Y202375*
X274091Y202750*
X273818Y203500*
Y204625*
X274091Y205375*
X274636Y206125*
X275455Y206500*
X276545Y206875*
X277091Y207250*
X277364Y208000*
Y208750*
X277091Y209500*
X276273Y209875*
X275182*
X283909D02*
X281182Y202000D01*
X280091Y209875D02*
X283909D01*
X338500D02*
X335773Y204625D01*
X339864*
X338500Y209875D02*
Y202000D01*
X342864Y209875D02*
X345864D01*
X344227Y206875*
X345045*
X345591Y206500*
X345864Y206125*
X346136Y205000*
Y204250*
X345864Y203125*
X345318Y202375*
X344500Y202000*
X343682*
X342864Y202375*
X342591Y202750*
X342318Y203500*
X372000Y208000D02*
X384000D01*
X378000Y202000D02*
Y214000D01*
X404636Y209875D02*
X406818Y206125D01*
Y202000*
X409000Y209875D02*
X406818Y206125D01*
X411455Y209875D02*
Y202000D01*
Y209875D02*
X415000D01*
X411455Y206125D02*
X413636D01*
X411455Y202000D02*
X415000D01*
X421273Y208750D02*
X420727Y209500D01*
X419909Y209875*
X418818*
X418000Y209500*
X417455Y208750*
Y208000*
X417727Y207250*
X418000Y206875*
X418545Y206500*
X420182Y205750*
X420727Y205375*
X421000Y205000*
X421273Y204250*
Y203125*
X420727Y202375*
X419909Y202000*
X418818*
X418000Y202375*
X417455Y203125*
X457818Y208750D02*
Y202000D01*
X455364Y205375D02*
X460273D01*
X467636Y211375D02*
X462727Y199375D01*
X470091Y205375D02*
X475000D01*
X479091Y209875D02*
X478273Y209500D01*
X477727Y208375*
X477455Y206500*
Y205375*
X477727Y203500*
X478273Y202375*
X479091Y202000*
X479636*
X480455Y202375*
X481000Y203500*
X481273Y205375*
Y206500*
X481000Y208375*
X480455Y209500*
X479636Y209875*
X479091*
X484000Y202750D02*
X483727Y202375D01*
X484000Y202000*
X484273Y202375*
X484000Y202750*
X488364Y209875D02*
X487545Y209500D01*
X487000Y208375*
X486727Y206500*
Y205375*
X487000Y203500*
X487545Y202375*
X488364Y202000*
X488909*
X489727Y202375*
X490273Y203500*
X490545Y205375*
Y206500*
X490273Y208375*
X489727Y209500*
X488909Y209875*
X488364*
X247636Y185875D02*
X246818Y185500D01*
X246273Y184375*
X246000Y182500*
Y181375*
X246273Y179500*
X246818Y178375*
X247636Y178000*
X248182*
X249000Y178375*
X249545Y179500*
X249818Y181375*
Y182500*
X249545Y184375*
X249000Y185500*
X248182Y185875*
X247636*
X252545Y178750D02*
X252273Y178375D01*
X252545Y178000*
X252818Y178375*
X252545Y178750*
X256636Y185875D02*
X255818Y185500D01*
X255545Y184750*
Y184000*
X255818Y183250*
X256364Y182875*
X257455Y182500*
X258273Y182125*
X258818Y181375*
X259091Y180625*
Y179500*
X258818Y178750*
X258545Y178375*
X257727Y178000*
X256636*
X255818Y178375*
X255545Y178750*
X255273Y179500*
Y180625*
X255545Y181375*
X256091Y182125*
X256909Y182500*
X258000Y182875*
X258545Y183250*
X258818Y184000*
Y184750*
X258545Y185500*
X257727Y185875*
X256636*
X263182D02*
X262364Y185500D01*
X261818Y184375*
X261545Y182500*
Y181375*
X261818Y179500*
X262364Y178375*
X263182Y178000*
X263727*
X264545Y178375*
X265091Y179500*
X265364Y181375*
Y182500*
X265091Y184375*
X264545Y185500*
X263727Y185875*
X263182*
X269455D02*
X268636Y185500D01*
X268091Y184375*
X267818Y182500*
Y181375*
X268091Y179500*
X268636Y178375*
X269455Y178000*
X270000*
X270818Y178375*
X271364Y179500*
X271636Y181375*
Y182500*
X271364Y184375*
X270818Y185500*
X270000Y185875*
X269455*
X274091Y184375D02*
X274636Y184750D01*
X275455Y185875*
Y178000*
X342455Y184750D02*
X342182Y185500D01*
X341364Y185875*
X340818*
X340000Y185500*
X339455Y184375*
X339182Y182500*
Y180625*
X339455Y179125*
X340000Y178375*
X340818Y178000*
X341091*
X341909Y178375*
X342455Y179125*
X342727Y180250*
Y180625*
X342455Y181750*
X341909Y182500*
X341091Y182875*
X340818*
X340000Y182500*
X339455Y181750*
X339182Y180625*
X378000Y178000D02*
X384000Y184000D01*
X378000Y190000*
X372000Y184000*
X378000Y178000*
Y184000D02*
Y190000D01*
X404636Y185875D02*
X406818Y182125D01*
Y178000*
X409000Y185875D02*
X406818Y182125D01*
X411455Y185875D02*
Y178000D01*
Y185875D02*
X415000D01*
X411455Y182125D02*
X413636D01*
X411455Y178000D02*
X415000D01*
X421273Y184750D02*
X420727Y185500D01*
X419909Y185875*
X418818*
X418000Y185500*
X417455Y184750*
Y184000*
X417727Y183250*
X418000Y182875*
X418545Y182500*
X420182Y181750*
X420727Y181375*
X421000Y181000*
X421273Y180250*
Y179125*
X420727Y178375*
X419909Y178000*
X418818*
X418000Y178375*
X417455Y179125*
X457818Y184750D02*
Y178000D01*
X455364Y181375D02*
X460273D01*
X467636Y187375D02*
X462727Y175375D01*
X470091Y181375D02*
X475000D01*
X479091Y185875D02*
X478273Y185500D01*
X477727Y184375*
X477455Y182500*
Y181375*
X477727Y179500*
X478273Y178375*
X479091Y178000*
X479636*
X480455Y178375*
X481000Y179500*
X481273Y181375*
Y182500*
X481000Y184375*
X480455Y185500*
X479636Y185875*
X479091*
X484000Y178750D02*
X483727Y178375D01*
X484000Y178000*
X484273Y178375*
X484000Y178750*
X488364Y185875D02*
X487545Y185500D01*
X487000Y184375*
X486727Y182500*
Y181375*
X487000Y179500*
X487545Y178375*
X488364Y178000*
X488909*
X489727Y178375*
X490273Y179500*
X490545Y181375*
Y182500*
X490273Y184375*
X489727Y185500*
X488909Y185875*
X488364*
X246000Y160375D02*
X246545Y160750D01*
X247364Y161875*
Y154000*
X250091Y154750D02*
X249818Y154375D01*
X250091Y154000*
X250364Y154375*
X250091Y154750*
X254455Y161875D02*
X253636Y161500D01*
X253091Y160375*
X252818Y158500*
Y157375*
X253091Y155500*
X253636Y154375*
X254455Y154000*
X255000*
X255818Y154375*
X256364Y155500*
X256636Y157375*
Y158500*
X256364Y160375*
X255818Y161500*
X255000Y161875*
X254455*
X260727D02*
X259909Y161500D01*
X259364Y160375*
X259091Y158500*
Y157375*
X259364Y155500*
X259909Y154375*
X260727Y154000*
X261273*
X262091Y154375*
X262636Y155500*
X262909Y157375*
Y158500*
X262636Y160375*
X262091Y161500*
X261273Y161875*
X260727*
X267000D02*
X266182Y161500D01*
X265636Y160375*
X265364Y158500*
Y157375*
X265636Y155500*
X266182Y154375*
X267000Y154000*
X267545*
X268364Y154375*
X268909Y155500*
X269182Y157375*
Y158500*
X268909Y160375*
X268364Y161500*
X267545Y161875*
X267000*
X271909Y160000D02*
Y160375D01*
X272182Y161125*
X272455Y161500*
X273000Y161875*
X274091*
X274636Y161500*
X274909Y161125*
X275182Y160375*
Y159625*
X274909Y158875*
X274364Y157750*
X271636Y154000*
X275455*
X281455Y161875D02*
X278727D01*
X278455Y158500*
X278727Y158875*
X279545Y159250*
X280364*
X281182Y158875*
X281727Y158125*
X282000Y157000*
X281727Y156250*
X281455Y155125*
X280909Y154375*
X280091Y154000*
X279273*
X278455Y154375*
X278182Y154750*
X277909Y155500*
X337136Y160375D02*
X337682Y160750D01*
X338500Y161875*
Y154000*
X341227Y160000D02*
Y160375D01*
X341500Y161125*
X341773Y161500*
X342318Y161875*
X343409*
X343955Y161500*
X344227Y161125*
X344500Y160375*
Y159625*
X344227Y158875*
X343682Y157750*
X340955Y154000*
X344773*
X372000D02*
X384000Y166000D01*
X372000D02*
X384000Y154000D01*
X404636Y161875D02*
X406818Y158125D01*
Y154000*
X409000Y161875D02*
X406818Y158125D01*
X411455Y161875D02*
Y154000D01*
Y161875D02*
X415000D01*
X411455Y158125D02*
X413636D01*
X411455Y154000D02*
X415000D01*
X421273Y160750D02*
X420727Y161500D01*
X419909Y161875*
X418818*
X418000Y161500*
X417455Y160750*
Y160000*
X417727Y159250*
X418000Y158875*
X418545Y158500*
X420182Y157750*
X420727Y157375*
X421000Y157000*
X421273Y156250*
Y155125*
X420727Y154375*
X419909Y154000*
X418818*
X418000Y154375*
X417455Y155125*
X457818Y160750D02*
Y154000D01*
X455364Y157375D02*
X460273D01*
X467636Y163375D02*
X462727Y151375D01*
X470091Y157375D02*
X475000D01*
X479091Y161875D02*
X478273Y161500D01*
X477727Y160375*
X477455Y158500*
Y157375*
X477727Y155500*
X478273Y154375*
X479091Y154000*
X479636*
X480455Y154375*
X481000Y155500*
X481273Y157375*
Y158500*
X481000Y160375*
X480455Y161500*
X479636Y161875*
X479091*
X484000Y154750D02*
X483727Y154375D01*
X484000Y154000*
X484273Y154375*
X484000Y154750*
X488364Y161875D02*
X487545Y161500D01*
X487000Y160375*
X486727Y158500*
Y157375*
X487000Y155500*
X487545Y154375*
X488364Y154000*
X488909*
X489727Y154375*
X490273Y155500*
X490545Y157375*
Y158500*
X490273Y160375*
X489727Y161500*
X488909Y161875*
X488364*
X246000Y136375D02*
X246545Y136750D01*
X247364Y137875*
Y130000*
X250091Y130750D02*
X249818Y130375D01*
X250091Y130000*
X250364Y130375*
X250091Y130750*
X252818Y136375D02*
X253364Y136750D01*
X254182Y137875*
Y130000*
X258273Y137875D02*
X257455Y137500D01*
X256909Y136375*
X256636Y134500*
Y133375*
X256909Y131500*
X257455Y130375*
X258273Y130000*
X258818*
X259636Y130375*
X260182Y131500*
X260455Y133375*
Y134500*
X260182Y136375*
X259636Y137500*
X258818Y137875*
X258273*
X264545D02*
X263727Y137500D01*
X263182Y136375*
X262909Y134500*
Y133375*
X263182Y131500*
X263727Y130375*
X264545Y130000*
X265091*
X265909Y130375*
X266455Y131500*
X266727Y133375*
Y134500*
X266455Y136375*
X265909Y137500*
X265091Y137875*
X264545*
X270818D02*
X270000Y137500D01*
X269455Y136375*
X269182Y134500*
Y133375*
X269455Y131500*
X270000Y130375*
X270818Y130000*
X271364*
X272182Y130375*
X272727Y131500*
X273000Y133375*
Y134500*
X272727Y136375*
X272182Y137500*
X271364Y137875*
X270818*
X279273D02*
X276545Y130000D01*
X275455Y137875D02*
X279273D01*
X339591D02*
X342591D01*
X340955Y134875*
X341773*
X342318Y134500*
X342591Y134125*
X342864Y133000*
Y132250*
X342591Y131125*
X342045Y130375*
X341227Y130000*
X340409*
X339591Y130375*
X339318Y130750*
X339045Y131500*
X372000Y130000D02*
X384000D01*
Y142000*
X372000*
Y130000*
X378000Y136000D02*
Y142000D01*
X404636Y137875D02*
X406818Y134125D01*
Y130000*
X409000Y137875D02*
X406818Y134125D01*
X411455Y137875D02*
Y130000D01*
Y137875D02*
X415000D01*
X411455Y134125D02*
X413636D01*
X411455Y130000D02*
X415000D01*
X421273Y136750D02*
X420727Y137500D01*
X419909Y137875*
X418818*
X418000Y137500*
X417455Y136750*
Y136000*
X417727Y135250*
X418000Y134875*
X418545Y134500*
X420182Y133750*
X420727Y133375*
X421000Y133000*
X421273Y132250*
Y131125*
X420727Y130375*
X419909Y130000*
X418818*
X418000Y130375*
X417455Y131125*
X457818Y136750D02*
Y130000D01*
X455364Y133375D02*
X460273D01*
X467636Y139375D02*
X462727Y127375D01*
X470091Y133375D02*
X475000D01*
X479091Y137875D02*
X478273Y137500D01*
X477727Y136375*
X477455Y134500*
Y133375*
X477727Y131500*
X478273Y130375*
X479091Y130000*
X479636*
X480455Y130375*
X481000Y131500*
X481273Y133375*
Y134500*
X481000Y136375*
X480455Y137500*
X479636Y137875*
X479091*
X484000Y130750D02*
X483727Y130375D01*
X484000Y130000*
X484273Y130375*
X484000Y130750*
X488364Y137875D02*
X487545Y137500D01*
X487000Y136375*
X486727Y134500*
Y133375*
X487000Y131500*
X487545Y130375*
X488364Y130000*
X488909*
X489727Y130375*
X490273Y131500*
X490545Y133375*
Y134500*
X490273Y136375*
X489727Y137500*
X488909Y137875*
X488364*
X246273Y112000D02*
Y112375D01*
X246545Y113125*
X246818Y113500*
X247364Y113875*
X248455*
X249000Y113500*
X249273Y113125*
X249545Y112375*
Y111625*
X249273Y110875*
X248727Y109750*
X246000Y106000*
X249818*
X252545Y106750D02*
X252273Y106375D01*
X252545Y106000*
X252818Y106375*
X252545Y106750*
X255818Y113875D02*
X258818D01*
X257182Y110875*
X258000*
X258545Y110500*
X258818Y110125*
X259091Y109000*
Y108250*
X258818Y107125*
X258273Y106375*
X257455Y106000*
X256636*
X255818Y106375*
X255545Y106750*
X255273Y107500*
X263182Y113875D02*
X262364Y113500D01*
X261818Y112375*
X261545Y110500*
Y109375*
X261818Y107500*
X262364Y106375*
X263182Y106000*
X263727*
X264545Y106375*
X265091Y107500*
X265364Y109375*
Y110500*
X265091Y112375*
X264545Y113500*
X263727Y113875*
X263182*
X269455D02*
X268636Y113500D01*
X268091Y112375*
X267818Y110500*
Y109375*
X268091Y107500*
X268636Y106375*
X269455Y106000*
X270000*
X270818Y106375*
X271364Y107500*
X271636Y109375*
Y110500*
X271364Y112375*
X270818Y113500*
X270000Y113875*
X269455*
X274636D02*
X277636D01*
X276000Y110875*
X276818*
X277364Y110500*
X277636Y110125*
X277909Y109000*
Y108250*
X277636Y107125*
X277091Y106375*
X276273Y106000*
X275455*
X274636Y106375*
X274364Y106750*
X274091Y107500*
X283909Y111250D02*
X283636Y110125D01*
X283091Y109375*
X282273Y109000*
X282000*
X281182Y109375*
X280636Y110125*
X280364Y111250*
Y111625*
X280636Y112750*
X281182Y113500*
X282000Y113875*
X282273*
X283091Y113500*
X283636Y112750*
X283909Y111250*
Y109375*
X283636Y107500*
X283091Y106375*
X282273Y106000*
X281727*
X280909Y106375*
X280636Y107125*
X339318Y112000D02*
Y112375D01*
X339591Y113125*
X339864Y113500*
X340409Y113875*
X341500*
X342045Y113500*
X342318Y113125*
X342591Y112375*
Y111625*
X342318Y110875*
X341773Y109750*
X339045Y106000*
X342864*
X372000D02*
X384000D01*
X372000Y118000*
X384000*
X372000Y106000*
X404636Y113875D02*
X406818Y110125D01*
Y106000*
X409000Y113875D02*
X406818Y110125D01*
X411455Y113875D02*
Y106000D01*
Y113875D02*
X415000D01*
X411455Y110125D02*
X413636D01*
X411455Y106000D02*
X415000D01*
X421273Y112750D02*
X420727Y113500D01*
X419909Y113875*
X418818*
X418000Y113500*
X417455Y112750*
Y112000*
X417727Y111250*
X418000Y110875*
X418545Y110500*
X420182Y109750*
X420727Y109375*
X421000Y109000*
X421273Y108250*
Y107125*
X420727Y106375*
X419909Y106000*
X418818*
X418000Y106375*
X417455Y107125*
X457818Y112750D02*
Y106000D01*
X455364Y109375D02*
X460273D01*
X467636Y115375D02*
X462727Y103375D01*
X470091Y109375D02*
X475000D01*
X479091Y113875D02*
X478273Y113500D01*
X477727Y112375*
X477455Y110500*
Y109375*
X477727Y107500*
X478273Y106375*
X479091Y106000*
X479636*
X480455Y106375*
X481000Y107500*
X481273Y109375*
Y110500*
X481000Y112375*
X480455Y113500*
X479636Y113875*
X479091*
X484000Y106750D02*
X483727Y106375D01*
X484000Y106000*
X484273Y106375*
X484000Y106750*
X488364Y113875D02*
X487545Y113500D01*
X487000Y112375*
X486727Y110500*
Y109375*
X487000Y107500*
X487545Y106375*
X488364Y106000*
X488909*
X489727Y106375*
X490273Y107500*
X490545Y109375*
Y110500*
X490273Y112375*
X489727Y113500*
X488909Y113875*
X488364*
G54D36*
X237783Y100000D02*
Y222037D01*
X100000*
Y162987*
X115747*
Y155113*
X100000*
Y100000*
X237783*
X0Y0D02*
M02*
