%
T1C.01968F095S3
X0131Y01195
X01385Y0103
X0148Y01065
X01565Y01065
X01595Y01205
X01695Y01275
X0171Y01205
X01795Y01055
X01875Y01035
X02005Y0127
X02075Y011
X0211Y0118
X021Y01465
X021Y01515
X01845Y01375
X0168Y0147
X0155Y0149
X01265Y01455
X0122Y01565
X01545Y01645
X01775Y01675
X0184Y01615
X0201Y0174
X02015Y0155
X02035Y01695
X0208Y01695
X0214Y0168
X0221Y0172
X0221Y0177
X0203Y0201
X01985Y0201
X0194Y0201
X0181Y0201
X0181Y01895
X0176Y01875
X01755Y0194
X0106Y0187
X0175Y02075
X0175Y02125
X0175Y02175
X0199Y02165
X02045Y02165
X0221Y0214
T2C.0315F197S55
X01155Y01225
X01155Y01125
X014854Y018258
X014854Y019242
X014067Y019242
X014067Y018258
T3C.03938F197S55
X012Y0105
X023Y0115
X023Y012675
X023Y015037
X023Y01425
X023Y013463
X023Y015825
X023Y017819
X023Y020181
X023Y019394
X023Y018606
X01475Y02175
T4C.04331F139S55
X010794Y013055
X011582Y014945
X01355Y013055
T5C.09057F066S55
X013Y01638
X013Y02112
M30
