*
*
G04 PADS 9.5 Build Number: 522968 generated Gerber (RS-274-X) file*
G04 PC Version=2.1*
*
%IN "FOCUSER_pads.pcb"*%
*
%MOIN*%
*
%FSLAX35Y35*%
*
*
*
*
G04 PC Standard Apertures*
*
*
G04 Thermal Relief Aperture macro.*
%AMTER*
1,1,$1,0,0*
1,0,$1-$2,0,0*
21,0,$3,$4,0,0,45*
21,0,$3,$4,0,0,135*
%
*
*
G04 Annular Aperture macro.*
%AMANN*
1,1,$1,0,0*
1,0,$2,0,0*
%
*
*
G04 Odd Aperture macro.*
%AMODD*
1,1,$1,0,0*
1,0,$1-0.005,0,0*
%
*
*
G04 PC Custom Aperture Macros*
*
*
*
*
*
*
G04 PC Aperture Table*
*
%ADD010C,0.001*%
%ADD011R,0.039X0.049*%
%ADD012R,0.118X0.063*%
%ADD013R,0.06X0.055*%
%ADD014R,0.049X0.039*%
%ADD015R,0.063X0.138*%
%ADD016C,0.039*%
%ADD023R,0.018X0.069*%
%ADD024R,0.016X0.063*%
%ADD025R,0.016X0.057*%
%ADD026R,0.1X0.1*%
%ADD036C,0.005*%
*
*
*
*
G04 PC Circuitry*
G04 Layer Name FOCUSER_pads.pcb - circuitry*
%LPD*%
*
*
G04 PC Custom Flashes*
G04 Layer Name FOCUSER_pads.pcb - flashes*
%LPD*%
*
*
G04 PC Circuitry*
G04 Layer Name FOCUSER_pads.pcb - circuitry*
%LPD*%
*
G54D10*
G54D11*
G01X196500Y122500D03*
X188500D03*
X207000D03*
X215000D03*
X156000Y127500D03*
X164000D03*
X188500Y177500D03*
X196500D03*
X188500Y170000D03*
X196500D03*
X206000Y175000D03*
X214000D03*
G54D12*
X148660Y112500D03*
X131340D03*
X163840D03*
X181160D03*
G54D13*
X177500Y161000D03*
Y149000D03*
G54D14*
Y173500D03*
Y181500D03*
Y136500D03*
Y128500D03*
X159000Y169500D03*
Y177500D03*
X168000Y169500D03*
Y177500D03*
G54D15*
X167500Y191900D03*
Y213100D03*
G54D16*
X187500Y216500D03*
X192500D03*
G54D23*
X188485Y133300D03*
X191043D03*
X193602D03*
X196162D03*
X198720D03*
X201280D03*
X203838D03*
X206400D03*
X208957D03*
X211515D03*
Y161700D03*
X208957D03*
X206400D03*
X203838D03*
X201280D03*
X198720D03*
X196162D03*
X193602D03*
X191043D03*
X188485D03*
G54D24*
X151250Y136850D03*
X153750D03*
X156250D03*
X158750D03*
X161250D03*
X163750D03*
X166250D03*
X168750D03*
Y158150D03*
X166250D03*
X163750D03*
X161250D03*
X158750D03*
X156250D03*
X153750D03*
X151250D03*
G54D25*
X188485Y186500D03*
X191043D03*
X193602D03*
X196162D03*
X198720D03*
X201280D03*
X203838D03*
X206400D03*
X208957D03*
X211515D03*
Y208500D03*
X208957D03*
X206400D03*
X203838D03*
X201280D03*
X198720D03*
X196162D03*
X193602D03*
X191043D03*
X188485D03*
G54D26*
X217350Y110000D03*
X197650D03*
G54D36*
X237783Y100000D02*
Y222037D01*
X100000*
Y162987*
X115747*
Y155113*
X100000*
Y100000*
X237783*
X0Y0D02*
M02*
