*
*
G04 PADS 9.5 Build Number: 522968 generated Gerber (RS-274-X) file*
G04 PC Version=2.1*
*
%IN "FOCUSER_pads.pcb"*%
*
%MOIN*%
*
%FSLAX35Y35*%
*
*
*
*
G04 PC Standard Apertures*
*
*
G04 Thermal Relief Aperture macro.*
%AMTER*
1,1,$1,0,0*
1,0,$1-$2,0,0*
21,0,$3,$4,0,0,45*
21,0,$3,$4,0,0,135*
%
*
*
G04 Annular Aperture macro.*
%AMANN*
1,1,$1,0,0*
1,0,$2,0,0*
%
*
*
G04 Odd Aperture macro.*
%AMODD*
1,1,$1,0,0*
1,0,$1-0.005,0,0*
%
*
*
G04 PC Custom Aperture Macros*
*
*
*
*
*
*
G04 PC Aperture Table*
*
%ADD010C,0.001*%
%ADD022C,0.07*%
%ADD036C,0.005*%
%ADD043R,0.054X0.064*%
%ADD044R,0.133X0.078*%
%ADD045R,0.075X0.07*%
%ADD046R,0.064X0.054*%
%ADD047R,0.078X0.153*%
%ADD048C,0.054*%
%ADD049R,0.075X0.075*%
%ADD050C,0.075*%
%ADD051R,0.07X0.07*%
%ADD052C,0.135*%
%ADD053C,0.085*%
%ADD054R,0.033X0.084*%
%ADD055R,0.031X0.078*%
%ADD056R,0.031X0.072*%
%ADD057R,0.115X0.115*%
%ADD058C,0.05*%
*
*
*
*
G04 PC Circuitry*
G04 Layer Name FOCUSER_pads.pcb - circuitry*
%LPD*%
*
*
G04 PC Custom Flashes*
G04 Layer Name FOCUSER_pads.pcb - flashes*
%LPD*%
*
*
G04 PC Circuitry*
G04 Layer Name FOCUSER_pads.pcb - circuitry*
%LPD*%
*
G54D10*
G54D22*
G01X148543Y192422D03*
X140670D03*
Y182578D03*
X230000Y193937D03*
Y186063D03*
Y178188D03*
Y150373D03*
Y142500D03*
Y134627D03*
Y126752D03*
G54D36*
X237783Y100000D02*
Y222037D01*
X100000*
Y162987*
X115747*
Y155113*
X100000*
Y100000*
X237783*
G54D43*
X196500Y122500D03*
X188500D03*
X207000D03*
X215000D03*
X156000Y127500D03*
X164000D03*
X188500Y177500D03*
X196500D03*
X188500Y170000D03*
X196500D03*
X206000Y175000D03*
X214000D03*
G54D44*
X148660Y112500D03*
X131340D03*
X163840D03*
X181160D03*
G54D45*
X177500Y161000D03*
Y149000D03*
G54D46*
Y173500D03*
Y181500D03*
Y136500D03*
Y128500D03*
X159000Y169500D03*
Y177500D03*
X168000Y169500D03*
Y177500D03*
G54D47*
X167500Y191900D03*
Y213100D03*
G54D48*
X187500Y216500D03*
X192500D03*
G54D49*
X115500Y122500D03*
G54D50*
Y112500D03*
X230000Y115000D03*
X120000Y105000D03*
X147500Y217500D03*
G54D51*
X148543Y182578D03*
X230000Y201812D03*
Y158248D03*
G54D52*
X130000Y211200D03*
Y163800D03*
G54D53*
X115815Y149450D03*
X107942Y130550D03*
X135500D03*
G54D54*
X188485Y133300D03*
X191043D03*
X193602D03*
X196162D03*
X198720D03*
X201280D03*
X203838D03*
X206400D03*
X208957D03*
X211515D03*
Y161700D03*
X208957D03*
X206400D03*
X203838D03*
X201280D03*
X198720D03*
X196162D03*
X193602D03*
X191043D03*
X188485D03*
G54D55*
X151250Y136850D03*
X153750D03*
X156250D03*
X158750D03*
X161250D03*
X163750D03*
X166250D03*
X168750D03*
Y158150D03*
X166250D03*
X163750D03*
X161250D03*
X158750D03*
X156250D03*
X153750D03*
X151250D03*
G54D56*
X188485Y186500D03*
X191043D03*
X193602D03*
X196162D03*
X198720D03*
X201280D03*
X203838D03*
X206400D03*
X208957D03*
X211515D03*
Y208500D03*
X208957D03*
X206400D03*
X203838D03*
X201280D03*
X198720D03*
X196162D03*
X193602D03*
X191043D03*
X188485D03*
G54D57*
X217350Y110000D03*
X197650D03*
G54D58*
X138500Y103000D03*
X148000Y106500D03*
X187500Y103500D03*
X156500Y106500D03*
X179500Y105500D03*
X126500Y145500D03*
X131000Y119500D03*
X155000Y149000D03*
X168000Y147000D03*
X169500Y127500D03*
X171000Y120500D03*
X159500D03*
X184500Y137500D03*
X211000Y118000D03*
X210000Y146500D03*
X207500Y110000D03*
X200500Y127000D03*
X106000Y187000D03*
X122000Y156500D03*
X176000Y187500D03*
X184000Y161500D03*
X154500Y164500D03*
X181000Y189500D03*
X177500Y167500D03*
X201500Y155000D03*
X210000Y151500D03*
X214000Y168000D03*
X221000Y177000D03*
Y172000D03*
X201000Y174000D03*
X208000Y169500D03*
X203500D03*
X175500Y194000D03*
X175000Y217500D03*
Y207500D03*
Y212500D03*
X181000Y201000D03*
X203000D03*
X221000Y214000D03*
X204500Y216500D03*
X199000D03*
X198500Y201000D03*
X194000D03*
X0Y0D02*
M02*
