*
*
G04 PADS 9.5 Build Number: 522968 generated Gerber (RS-274-X) file*
G04 PC Version=2.1*
*
%IN "FOCUSER_pads.pcb"*%
*
%MOIN*%
*
%FSLAX35Y35*%
*
*
*
*
G04 PC Standard Apertures*
*
*
G04 Thermal Relief Aperture macro.*
%AMTER*
1,1,$1,0,0*
1,0,$1-$2,0,0*
21,0,$3,$4,0,0,45*
21,0,$3,$4,0,0,135*
%
*
*
G04 Annular Aperture macro.*
%AMANN*
1,1,$1,0,0*
1,0,$2,0,0*
%
*
*
G04 Odd Aperture macro.*
%AMODD*
1,1,$1,0,0*
1,0,$1-0.005,0,0*
%
*
*
G04 PC Custom Aperture Macros*
*
*
*
*
*
*
G04 PC Aperture Table*
*
%ADD010C,0.001*%
%ADD027C,0.008*%
%ADD031C,0.01*%
%ADD036C,0.005*%
%ADD065C,0.006*%
%ADD066C,0.007*%
*
*
*
*
G04 PC Circuitry*
G04 Layer Name FOCUSER_pads.pcb - circuitry*
%LPD*%
*
*
G04 PC Custom Flashes*
G04 Layer Name FOCUSER_pads.pcb - flashes*
%LPD*%
*
*
G04 PC Circuitry*
G04 Layer Name FOCUSER_pads.pcb - circuitry*
%LPD*%
*
G54D10*
G54D27*
G01X221500Y137500D02*
Y157500D01*
X219000*
X217500Y160000*
X216000Y157500*
X213500*
Y137500*
X221500*
X115800Y184000D02*
G75*
G03X109200I-3300J-4395D01*
G01X115800D02*
Y171000D01*
X109200D02*
G03X115800I3300J4395D01*
G01X109200D02*
Y184000D01*
X156000Y195800D02*
G03Y189200I4395J-3300D01*
G01Y195800D02*
X169000D01*
Y189200D02*
G03Y195800I-4395J3300D01*
G01Y189200D02*
X156000D01*
Y185800D02*
G03Y179200I4395J-3300D01*
G01Y185800D02*
X169000D01*
Y179200D02*
G03Y185800I-4395J3300D01*
G01Y179200D02*
X156000D01*
X174200Y126000D02*
G03X180800I3300J4395D01*
G01X174200D02*
Y139000D01*
X180800D02*
G03X174200I-3300J-4395D01*
G01X180800D02*
Y126000D01*
X157000Y165800D02*
G03Y159200I4395J-3300D01*
G01Y165800D02*
X170000D01*
Y159200D02*
G03Y165800I-4395J3300D01*
G01Y159200D02*
X157000D01*
X174200Y148500D02*
G03X180800I3300J4395D01*
G01X174200D02*
Y161500D01*
X180800D02*
G03X174200I-3300J-4395D01*
G01X180800D02*
Y148500D01*
X189800Y154000D02*
G03X183200I-3300J-4395D01*
G01X189800D02*
Y141000D01*
X183200D02*
G03X189800I3300J4395D01*
G01X183200D02*
Y154000D01*
X133500Y113500D02*
X146500D01*
Y121500*
X133500*
Y113500*
X119000Y203000D02*
Y172000D01*
X136000*
Y203000*
X119000*
X152000Y175800D02*
Y169200D01*
X138000*
Y175800*
X152000*
Y165800D02*
Y159200D01*
X138000*
Y165800*
X152000*
X169500Y215800D02*
Y209200D01*
X155500*
Y215800*
X169500*
Y205800D02*
Y199200D01*
X155500*
Y205800*
X169500*
X155800Y110500D02*
X149200D01*
Y124500*
X155800*
Y110500*
X129500Y143300D02*
Y136700D01*
X115500*
Y143300*
X129500*
X115500Y126700D02*
Y133300D01*
X129500*
Y126700*
X115500*
X214200Y134500D02*
X220800D01*
Y120500*
X214200*
Y134500*
X204200D02*
X210800D01*
Y120500*
X204200*
Y134500*
X115800Y190500D02*
X109200D01*
Y204500*
X115800*
Y190500*
X183500Y200000D02*
Y215500D01*
X217500*
Y199500*
X183500*
Y200000*
Y177500D02*
Y193000D01*
X217500*
Y177000*
X183500*
Y177500*
X121700Y124500D02*
X128300D01*
Y110500*
X121700*
Y124500*
X196000Y154000D02*
Y141000D01*
X204000*
Y154000*
X196000*
G54D31*
X157500Y129500D02*
Y155500D01*
X142500*
Y129500*
X157500*
G54D36*
X237783Y100000D02*
Y222037D01*
X100000*
Y162987*
X115747*
Y155113*
X100000*
Y100000*
X237783*
G54D65*
X213325Y161750D02*
X213450Y162056D01*
X213700Y162363*
X213700D02*
X213950Y162516D01*
X214450*
X214700Y162363*
X214700D02*
X214950Y162056D01*
X215075Y161750*
X215200Y161291*
Y160525*
X215075Y160066*
X214950Y159759*
X214700Y159453*
X214450Y159300*
X213950*
X213700Y159453*
X213450Y159759*
X213325Y160066*
X211950Y162516D02*
X210575D01*
X211325Y161291*
X210950*
X210700Y161138*
X210700D02*
X210575Y160984D01*
X210450Y160525*
Y160219*
X210575Y159759*
X210825Y159453*
X211200Y159300*
X211575*
X211950Y159453*
X212075Y159606*
X212200Y159913*
X105825Y178750D02*
X105950Y179056D01*
X106200Y179363*
X106450Y179516*
X106950*
X107200Y179363*
X107450Y179056*
X107575Y178750*
X107700Y178291*
Y177525*
X107575Y177066*
X107450Y176759*
X107200Y176453*
X106950Y176300*
X106450*
X106200Y176453*
X105950Y176759*
X105825Y177066*
X103075Y179516D02*
X104325D01*
X104450Y178138*
X104325Y178291*
X103950Y178444*
X103575*
X103200Y178291*
X102950Y177984*
X102825Y177525*
X102950Y177219*
X103075Y176759*
X103325Y176453*
X103700Y176300*
X104075*
X104450Y176453*
X104575Y176606*
X104700Y176913*
X173825Y191750D02*
X173950Y192056D01*
X174200Y192363*
X174200D02*
X174450Y192516D01*
X174950*
X175200Y192363*
X175200D02*
X175450Y192056D01*
X175575Y191750*
X175700Y191291*
Y190525*
X175575Y190066*
X175450Y189759*
X175200Y189453*
X174950Y189300*
X174450*
X174200Y189453*
X173950Y189759*
X173825Y190066*
X171200Y192056D02*
X171325Y192363D01*
X171325D02*
X171700Y192516D01*
X171950*
X172325Y192363*
X172325D02*
X172575Y191903D01*
X172700Y191138*
X172700D02*
Y190372D01*
X172575Y189759*
X172325Y189453*
X171950Y189300*
X171825*
X171450Y189453*
X171200Y189759*
X171075Y190219*
Y190372*
X171200Y190831*
X171450Y191138*
X171450D02*
X171825Y191291D01*
X171950*
X172325Y191138*
X172325D02*
X172575Y190831D01*
X172700Y190372*
X162825Y177250D02*
X162950Y177556D01*
X163200Y177863*
X163200D02*
X163450Y178016D01*
X163950*
X164200Y177863*
X164200D02*
X164450Y177556D01*
X164575Y177250*
X164700Y176791*
Y176025*
X164575Y175566*
X164450Y175259*
X164200Y174953*
X163950Y174800*
X163450*
X163200Y174953*
X162950Y175259*
X162825Y175566*
X159950Y178016D02*
X161200Y174800D01*
X161700Y178016D02*
X159950D01*
X186325Y131250D02*
X186450Y131556D01*
X186700Y131863*
X186700D02*
X186950Y132016D01*
X187450*
X187700Y131863*
X187700D02*
X187950Y131556D01*
X188075Y131250*
X188200Y130791*
Y130025*
X188075Y129566*
X187950Y129259*
X187700Y128953*
X187450Y128800*
X186950*
X186700Y128953*
X186450Y129259*
X186325Y129566*
X185200Y131403D02*
X184950Y131556D01*
X184575Y132016*
Y128800*
X182700Y132016D02*
X183075Y131863D01*
X183075D02*
X183325Y131403D01*
X183450Y130638*
X183450D02*
Y130178D01*
X183325Y129413*
X183325D02*
X183075Y128953D01*
X182700Y128800*
X182450*
X182075Y128953*
X181825Y129413*
X181825D02*
X181700Y130178D01*
Y130638*
X181700D02*
X181825Y131403D01*
X182075Y131863*
X182075D02*
X182450Y132016D01*
X182700*
X164325Y169750D02*
X164450Y170056D01*
X164700Y170363*
X164700D02*
X164950Y170516D01*
X165450*
X165700Y170363*
X165700D02*
X165950Y170056D01*
X166075Y169750*
X166200Y169291*
Y168525*
X166075Y168066*
X165950Y167759*
X165700Y167453*
X165450Y167300*
X164950*
X164700Y167453*
X164450Y167759*
X164325Y168066*
X163200Y169903D02*
X162950Y170056D01*
X162575Y170516*
Y167300*
X161450Y169903D02*
X161200Y170056D01*
X160825Y170516*
Y167300*
X170825Y156250D02*
X170950Y156556D01*
X171200Y156863*
X171450Y157016*
X171950*
X172200Y156863*
X172450Y156556*
X172575Y156250*
X172700Y155791*
Y155025*
X172575Y154566*
X172450Y154259*
X172200Y153953*
X171950Y153800*
X171450*
X171200Y153953*
X170950Y154259*
X170825Y154566*
X169700Y156403D02*
X169450Y156556D01*
X169075Y157016*
Y153800*
X166325Y157016D02*
X167575D01*
X167700Y155638*
X167575Y155791*
X167200Y155944*
X166825*
X166450Y155791*
X166200Y155484*
X166075Y155025*
X166200Y154719*
X166325Y154259*
X166575Y153953*
X166950Y153800*
X167325*
X167700Y153953*
X167825Y154106*
X167950Y154413*
X191325Y137750D02*
X191450Y138056D01*
X191700Y138363*
X191700D02*
X191950Y138516D01*
X192450*
X192700Y138363*
X192700D02*
X192950Y138056D01*
X193075Y137750*
X193200Y137291*
Y136525*
X193075Y136066*
X192950Y135759*
X192700Y135453*
X192450Y135300*
X191950*
X191700Y135453*
X191450Y135759*
X191325Y136066*
X190200Y137903D02*
X189950Y138056D01*
X189575Y138516*
Y135300*
X187825Y138516D02*
X188200Y138363D01*
X188200D02*
X188325Y138056D01*
Y137750*
X188200Y137444*
X187950Y137291*
X187450Y137138*
X187450D02*
X187075Y136984D01*
X186825Y136678*
X186700Y136372*
Y135913*
X186700D02*
X186825Y135606D01*
X186950Y135453*
X187325Y135300*
X187825*
X188200Y135453*
X188325Y135606*
X188450Y135913*
X188450D02*
Y136372D01*
X188325Y136678*
X188075Y136984*
X187700Y137138*
X187700D02*
X187200Y137291D01*
X186950Y137444*
X186825Y137750*
Y138056*
X186950Y138363*
X186950D02*
X187325Y138516D01*
X187825*
X141200Y110016D02*
Y106800D01*
Y110016D02*
X140325D01*
X139950Y109863*
X139950D02*
X139700Y109556D01*
X139575Y109250*
X139450Y108791*
Y108025*
X139575Y107566*
X139700Y107259*
X139950Y106953*
X140325Y106800*
X141200*
X138325Y109403D02*
X138075Y109556D01*
X137700Y110016*
Y106800*
X123700Y207516D02*
Y204300D01*
Y207516D02*
X122075D01*
X123700Y205984D02*
X122700D01*
X120950Y206903D02*
X120700Y207056D01*
X120325Y207516*
Y204300*
X156700Y174016D02*
Y170800D01*
X155200*
X154075Y173403D02*
X153825Y173556D01*
X153450Y174016*
Y170800*
X139700Y158016D02*
Y154800D01*
X138200*
X136950Y157250D02*
Y157403D01*
X136825Y157709*
X136700Y157863*
X136450Y158016*
X135950*
X135700Y157863*
X135575Y157709*
X135450Y157403*
Y157097*
X135575Y156791*
X135825Y156331*
X137075Y154800*
X135325*
X153700Y214516D02*
Y211300D01*
X152200*
X150825Y214516D02*
X149450D01*
X150200Y213291*
X149825*
X149575Y213138*
X149450Y212984*
X149325Y212525*
Y212219*
X149450Y211759*
X149700Y211453*
X150075Y211300*
X150450*
X150825Y211453*
X150950Y211606*
X151075Y211913*
X153700Y205016D02*
Y201800D01*
X152200*
X149825Y205016D02*
X151075Y202872D01*
X149200*
X149825Y205016D02*
Y201800D01*
X161200Y117516D02*
Y114300D01*
Y117516D02*
X160075D01*
X159700Y117363*
X159700D02*
X159575Y117209D01*
X159450Y116903*
Y116597*
X159575Y116291*
X159700Y116138*
X159700D02*
X160075Y115984D01*
X161200*
X160325D02*
X159450Y114300D01*
X158075Y117516D02*
X156700D01*
X157450Y116291*
X157075*
X156825Y116138*
X156825D02*
X156700Y115984D01*
X156575Y115525*
Y115219*
X156700Y114759*
X156950Y114453*
X157325Y114300*
X157700*
X158075Y114453*
X158200Y114606*
X158325Y114913*
X113700Y143516D02*
Y140300D01*
Y143516D02*
X112575D01*
X112200Y143363*
X112200D02*
X112075Y143209D01*
X111950Y142903*
Y142597*
X112075Y142291*
X112200Y142138*
X112200D02*
X112575Y141984D01*
X113700*
X112825D02*
X111950Y140300D01*
X109575Y143516D02*
X110825Y141372D01*
X108950*
X109575Y143516D02*
Y140300D01*
X113700Y137516D02*
Y134300D01*
Y137516D02*
X112575D01*
X112200Y137363*
X112200D02*
X112075Y137209D01*
X111950Y136903*
Y136597*
X112075Y136291*
X112200Y136138*
X112200D02*
X112575Y135984D01*
X113700*
X112825D02*
X111950Y134300D01*
X109200Y137516D02*
X110450D01*
X110575Y136138*
X110575D02*
X110450Y136291D01*
X110075Y136444*
X109700*
X109325Y136291*
X109075Y135984*
X108950Y135525*
X109075Y135219*
X109200Y134759*
X109450Y134453*
X109825Y134300*
X110200*
X110575Y134453*
X110700Y134606*
X110825Y134913*
X226200Y129516D02*
Y126300D01*
Y129516D02*
X225075D01*
X224700Y129363*
X224700D02*
X224575Y129209D01*
X224450Y128903*
Y128597*
X224575Y128291*
X224700Y128138*
X224700D02*
X225075Y127984D01*
X226200*
X225325D02*
X224450Y126300D01*
X221825Y129056D02*
X221950Y129363D01*
X221950D02*
X222325Y129516D01*
X222575*
X222950Y129363*
X222950D02*
X223200Y128903D01*
X223325Y128138*
X223325D02*
Y127372D01*
X223200Y126759*
X222950Y126453*
X222575Y126300*
X222450*
X222075Y126453*
X221825Y126759*
X221700Y127219*
Y127372*
X221825Y127831*
X222075Y128138*
X222075D02*
X222450Y128291D01*
X222575*
X222950Y128138*
X222950D02*
X223200Y127831D01*
X223325Y127372*
X202200Y133516D02*
Y130300D01*
Y133516D02*
X201075D01*
X200700Y133363*
X200700D02*
X200575Y133209D01*
X200450Y132903*
Y132597*
X200575Y132291*
X200700Y132138*
X200700D02*
X201075Y131984D01*
X202200*
X201325D02*
X200450Y130300D01*
X197575Y133516D02*
X198825Y130300D01*
X199325Y133516D02*
X197575D01*
X115700Y209016D02*
Y205800D01*
Y209016D02*
X114575D01*
X114200Y208862*
X114200D02*
X114075Y208709D01*
X113950Y208403*
Y208097*
X114075Y207791*
X114200Y207637*
X114200D02*
X114575Y207484D01*
X115700*
X114825D02*
X113950Y205800D01*
X112825Y208403D02*
X112575Y208556D01*
X112200Y209016*
Y205800*
X110325Y209016D02*
X110700Y208862D01*
X110700D02*
X110950Y208403D01*
X111075Y207637*
X111075D02*
Y207178D01*
X110950Y206412*
X110950D02*
X110700Y205953D01*
X110325Y205800*
X110075*
X109700Y205953*
X109450Y206412*
X109450D02*
X109325Y207178D01*
Y207637*
X109325D02*
X109450Y208403D01*
X109700Y208862*
X109700D02*
X110075Y209016D01*
X110325*
X192200Y220016D02*
Y216800D01*
Y220016D02*
X191075D01*
X190700Y219863*
X190700D02*
X190575Y219709D01*
X190450Y219403*
Y219097*
X190575Y218791*
X190700Y218638*
X190700D02*
X191075Y218484D01*
X192200*
X191325D02*
X190450Y216800D01*
X189325Y219403D02*
X189075Y219556D01*
X188700Y220016*
Y216800*
X187575Y219403D02*
X187325Y219556D01*
X186950Y220016*
Y216800*
X192200Y197516D02*
Y194300D01*
Y197516D02*
X191075D01*
X190700Y197363*
X190700D02*
X190575Y197209D01*
X190450Y196903*
Y196597*
X190575Y196291*
X190700Y196138*
X190700D02*
X191075Y195984D01*
X192200*
X191325D02*
X190450Y194300D01*
X189325Y196903D02*
X189075Y197056D01*
X188700Y197516*
Y194300*
X187450Y196750D02*
Y196903D01*
X187325Y197209*
X187200Y197363*
X187200D02*
X186950Y197516D01*
X186450*
X186200Y197363*
X186200D02*
X186075Y197209D01*
X185950Y196903*
Y196597*
X186075Y196291*
X186325Y195831*
X187575Y194300*
X185825*
X130200Y109516D02*
Y106300D01*
Y109516D02*
X129075D01*
X128700Y109363*
X128700D02*
X128575Y109209D01*
X128450Y108903*
Y108597*
X128575Y108291*
X128700Y108138*
X128700D02*
X129075Y107984D01*
X130200*
X129325D02*
X128450Y106300D01*
X127325Y108903D02*
X127075Y109056D01*
X126700Y109516*
Y106300*
X125325Y109516D02*
X123950D01*
X124700Y108291*
X124325*
X124075Y108138*
X124075D02*
X123950Y107984D01*
X123825Y107525*
Y107219*
X123950Y106759*
X124200Y106453*
X124575Y106300*
X124950*
X125325Y106453*
X125450Y106606*
X125575Y106913*
X201700Y161016D02*
Y158719D01*
X201575Y158259*
X201325Y157953*
X200950Y157800*
X200700*
X200325Y157953*
X200075Y158259*
X199950Y158719*
Y161016*
X198700Y160250D02*
Y160403D01*
X198575Y160709*
X198450Y160863*
X198450D02*
X198200Y161016D01*
X197700*
X197450Y160863*
X197450D02*
X197325Y160709D01*
X197200Y160403*
Y160097*
X197325Y159791*
X197575Y159331*
X198825Y157800*
X197075*
X164200Y130516D02*
Y128219D01*
X164075Y127759*
X163825Y127453*
X163450Y127300*
X163200*
X162825Y127453*
X162575Y127759*
X162450Y128219*
Y130516*
X159825Y130056D02*
X159950Y130363D01*
X159950D02*
X160325Y130516D01*
X160575*
X160950Y130363*
X160950D02*
X161200Y129903D01*
X161325Y129138*
X161325D02*
Y128372D01*
X161200Y127759*
X160950Y127453*
X160575Y127300*
X160450*
X160075Y127453*
X159825Y127759*
X159700Y128219*
Y128372*
X159825Y128831*
X160075Y129138*
X160075D02*
X160450Y129291D01*
X160575*
X160950Y129138*
X160950D02*
X161200Y128831D01*
X161325Y128372*
X129075Y220250D02*
Y220403D01*
X128950Y220709*
X128825Y220863*
X128825D02*
X128575Y221016D01*
X128075*
X127825Y220863*
X127825D02*
X127700Y220709D01*
X127575Y220403*
Y220097*
X127700Y219791*
X127950Y219331*
X129200Y217800*
X127450*
X125575Y221016D02*
X125950Y220863D01*
X125950D02*
X126200Y220403D01*
X126325Y219638*
X126325D02*
Y219178D01*
X126200Y218413*
X126200D02*
X125950Y217953D01*
X125575Y217800*
X125325*
X124950Y217953*
X124700Y218413*
X124700D02*
X124575Y219178D01*
Y219638*
X124575D02*
X124700Y220403D01*
X124950Y220863*
X124950D02*
X125325Y221016D01*
X125575*
X123325Y220250D02*
Y220403D01*
X123200Y220709*
X123075Y220863*
X123075D02*
X122825Y221016D01*
X122325*
X122075Y220863*
X122075D02*
X121950Y220709D01*
X121825Y220403*
Y220097*
X121950Y219791*
X122200Y219331*
X123450Y217800*
X121700*
X119325Y221016D02*
X120575Y218872D01*
X118700*
X119325Y221016D02*
Y217800D01*
X117575Y219178D02*
X115325D01*
X113450Y221016D02*
X113825Y220863D01*
X113825D02*
X114075Y220403D01*
X114200Y219638*
X114200D02*
Y219178D01*
X114075Y218413*
X114075D02*
X113825Y217953D01*
X113450Y217800*
X113200*
X112825Y217953*
X112575Y218413*
X112575D02*
X112450Y219178D01*
Y219638*
X112450D02*
X112575Y220403D01*
X112825Y220863*
X112825D02*
X113200Y221016D01*
X113450*
X111075D02*
X109700D01*
X110450Y219791*
X110075*
X109825Y219638*
X109825D02*
X109700Y219484D01*
X109575Y219025*
Y218719*
X109700Y218259*
X109950Y217953*
X110325Y217800*
X110700*
X111075Y217953*
X111200Y218106*
X111325Y218413*
X108450Y219178D02*
X106200D01*
X104325Y221016D02*
X104700Y220863D01*
X104700D02*
X104950Y220403D01*
X105075Y219638*
X105075D02*
Y219178D01*
X104950Y218413*
X104950D02*
X104700Y217953D01*
X104325Y217800*
X104075*
X103700Y217953*
X103450Y218413*
X103450D02*
X103325Y219178D01*
Y219638*
X103325D02*
X103450Y220403D01*
X103700Y220863*
X103700D02*
X104075Y221016D01*
X104325*
X102200Y220403D02*
X101950Y220556D01*
X101575Y221016*
Y217800*
G54D66*
X203268Y112156D02*
X204450Y108350D01*
X203268Y112156D02*
X202086Y108350D01*
X204007Y109619D02*
X202530D01*
X198689Y111613D02*
X198984Y111975D01*
X199427Y112156*
X200018*
X200461Y111975*
X200757Y111613*
X200757D02*
Y111250D01*
X200609Y110888*
X200609D02*
X200461Y110706D01*
X200166Y110525*
X199280Y110163*
X199280D02*
X198984Y109981D01*
X198836Y109800*
X198689Y109438*
X198689D02*
Y108894D01*
X198984Y108531*
X199427Y108350*
X200018*
X200461Y108531*
X200757Y108894*
X195143Y111250D02*
X195291Y111613D01*
X195291D02*
X195586Y111975D01*
X195882Y112156*
X196473*
X196768Y111975*
X197064Y111613*
X197064D02*
X197211Y111250D01*
X197359Y110706*
Y109800*
X197211Y109256*
X197064Y108894*
X196768Y108531*
X196473Y108350*
X195882*
X195586Y108531*
X195291Y108894*
X195143Y109256*
X192927Y112156D02*
X193223Y111975D01*
X193518Y111613*
X193518D02*
X193666Y111250D01*
X193814Y110706*
Y109800*
X193666Y109256*
X193518Y108894*
X193223Y108531*
X192927Y108350*
X192336*
X192041Y108531*
X191745Y108894*
X191598Y109256*
X191450Y109800*
Y110706*
X191598Y111250*
X191745Y111613*
X191745D02*
X192041Y111975D01*
X192336Y112156*
X192927*
X190120D02*
Y108350D01*
Y112156D02*
X188939Y108350D01*
X187757Y112156D02*
X188939Y108350D01*
X187757Y112156D02*
Y108350D01*
X183030Y112156D02*
Y108350D01*
Y112156D02*
X181109D01*
X183030Y110344D02*
X181848D01*
X178893Y112156D02*
X179189Y111975D01*
X179484Y111613*
X179484D02*
X179632Y111250D01*
X179780Y110706*
Y109800*
X179632Y109256*
X179484Y108894*
X179189Y108531*
X178893Y108350*
X178302*
X178007Y108531*
X177711Y108894*
X177564Y109256*
X177416Y109800*
Y110706*
X177564Y111250*
X177711Y111613*
X177711D02*
X178007Y111975D01*
X178302Y112156*
X178893*
X173870Y111250D02*
X174018Y111613D01*
X174018D02*
X174314Y111975D01*
X174609Y112156*
X175200*
X175495Y111975*
X175791Y111613*
X175791D02*
X175939Y111250D01*
X176086Y110706*
Y109800*
X175939Y109256*
X175791Y108894*
X175495Y108531*
X175200Y108350*
X174609*
X174314Y108531*
X174018Y108894*
X173870Y109256*
X172541Y112156D02*
Y109438D01*
X172541D02*
X172393Y108894D01*
X172098Y108531*
X171655Y108350*
X171359*
X170916Y108531*
X170620Y108894*
X170473Y109438*
X170473D02*
Y112156D01*
X167075Y111613D02*
X167370Y111975D01*
X167814Y112156*
X168405*
X168848Y111975*
X169143Y111613*
X169143D02*
Y111250D01*
X168995Y110888*
X168995D02*
X168848Y110706D01*
X168552Y110525*
X167666Y110163*
X167666D02*
X167370Y109981D01*
X167223Y109800*
X167075Y109438*
X167075D02*
Y108894D01*
X167370Y108531*
X167814Y108350*
X168405*
X168848Y108531*
X169143Y108894*
X165745Y112156D02*
Y108350D01*
Y112156D02*
X163825D01*
X165745Y110344D02*
X164564D01*
X165745Y108350D02*
X163825D01*
X162495Y112156D02*
Y108350D01*
Y112156D02*
X161166D01*
X160723Y111975*
X160575Y111794*
X160427Y111431*
Y111069*
X160575Y110706*
X160723Y110525*
X161166Y110344*
X162495*
X161461D02*
X160427Y108350D01*
G74*
X0Y0D02*
M02*
