*
*
G04 PADS 9.5 Build Number: 522968 generated Gerber (RS-274-X) file*
G04 PC Version=2.1*
*
%IN "FOCUSER_pads.pcb"*%
*
%MOIN*%
*
%FSLAX35Y35*%
*
*
*
*
G04 PC Standard Apertures*
*
*
G04 Thermal Relief Aperture macro.*
%AMTER*
1,1,$1,0,0*
1,0,$1-$2,0,0*
21,0,$3,$4,0,0,45*
21,0,$3,$4,0,0,135*
%
*
*
G04 Annular Aperture macro.*
%AMANN*
1,1,$1,0,0*
1,0,$2,0,0*
%
*
*
G04 Odd Aperture macro.*
%AMODD*
1,1,$1,0,0*
1,0,$1-0.005,0,0*
%
*
*
G04 PC Custom Aperture Macros*
*
*
*
*
*
*
G04 PC Aperture Table*
*
%ADD010C,0.001*%
%ADD011R,0.039X0.049*%
%ADD012R,0.118X0.063*%
%ADD013R,0.06X0.055*%
%ADD014R,0.049X0.039*%
%ADD015R,0.063X0.138*%
%ADD016C,0.039*%
%ADD017R,0.06X0.06*%
%ADD018C,0.06*%
%ADD019R,0.055X0.055*%
%ADD020C,0.055*%
%ADD021C,0.12*%
%ADD022C,0.07*%
%ADD023R,0.018X0.069*%
%ADD024R,0.016X0.063*%
%ADD025R,0.016X0.057*%
%ADD026R,0.1X0.1*%
%ADD027C,0.008*%
%ADD028C,0.03*%
%ADD029C,0.018*%
%ADD030C,0.025*%
%ADD031C,0.01*%
%ADD032C,0.012*%
%ADD033C,0.016*%
%ADD034C,0.015*%
%ADD035C,0.035*%
%ADD036C,0.005*%
*
*
*
*
G04 PC Circuitry*
G04 Layer Name FOCUSER_pads.pcb - circuitry*
%LPD*%
*
*
G04 PC Custom Flashes*
G04 Layer Name FOCUSER_pads.pcb - flashes*
%LPD*%
*
*
G04 PC Circuitry*
G04 Layer Name FOCUSER_pads.pcb - circuitry*
%LPD*%
*
G54D10*
G54D11*
G01X196500Y122500D03*
X188500D03*
X207000D03*
X215000D03*
X156000Y127500D03*
X164000D03*
X188500Y177500D03*
X196500D03*
X188500Y170000D03*
X196500D03*
X206000Y175000D03*
X214000D03*
G54D12*
X148660Y112500D03*
X131340D03*
X163840D03*
X181160D03*
G54D13*
X177500Y161000D03*
Y149000D03*
G54D14*
Y173500D03*
Y181500D03*
Y136500D03*
Y128500D03*
X159000Y169500D03*
Y177500D03*
X168000Y169500D03*
Y177500D03*
G54D15*
X167500Y191900D03*
Y213100D03*
G54D16*
X187500Y216500D03*
X192500D03*
G54D17*
X115500Y122500D03*
G54D18*
Y112500D03*
X230000Y115000D03*
X120000Y105000D03*
X147500Y217500D03*
G54D19*
X148543Y182578D03*
X230000Y201812D03*
Y158248D03*
G54D20*
X148543Y192422D03*
X140670D03*
Y182578D03*
X230000Y193937D03*
Y186063D03*
Y178188D03*
Y150373D03*
Y142500D03*
Y134627D03*
Y126752D03*
G54D21*
X130000Y211200D03*
Y163800D03*
G54D22*
X115815Y149450D03*
X107942Y130550D03*
X135500D03*
G54D23*
X188485Y133300D03*
X191043D03*
X193602D03*
X196162D03*
X198720D03*
X201280D03*
X203838D03*
X206400D03*
X208957D03*
X211515D03*
Y161700D03*
X208957D03*
X206400D03*
X203838D03*
X201280D03*
X198720D03*
X196162D03*
X193602D03*
X191043D03*
X188485D03*
G54D24*
X151250Y136850D03*
X153750D03*
X156250D03*
X158750D03*
X161250D03*
X163750D03*
X166250D03*
X168750D03*
Y158150D03*
X166250D03*
X163750D03*
X161250D03*
X158750D03*
X156250D03*
X153750D03*
X151250D03*
G54D25*
X188485Y186500D03*
X191043D03*
X193602D03*
X196162D03*
X198720D03*
X201280D03*
X203838D03*
X206400D03*
X208957D03*
X211515D03*
Y208500D03*
X208957D03*
X206400D03*
X203838D03*
X201280D03*
X198720D03*
X196162D03*
X193602D03*
X191043D03*
X188485D03*
G54D26*
X217350Y110000D03*
X197650D03*
G54D27*
X138500Y103000D02*
X139500Y102000D01*
X186000*
X187500Y103500*
X141000Y108500D02*
Y117000D01*
X144500Y120500*
Y153000*
X152000*
X153750Y154750*
Y158150*
X141000Y108500D02*
X143000Y106500D01*
X148000*
X156500D02*
X170000D01*
X171500Y108000*
Y116500*
X176000Y121000*
X177000*
X184500Y128500*
X195000*
X196162Y129662*
Y133300*
X126500Y145500D02*
Y151000D01*
X128500Y153000*
X144500*
X152000*
X153750Y154750*
Y158150*
X115500Y112500D02*
X119500D01*
X126000Y106000*
X140500*
X143000Y103500*
X171500*
X173500Y105500*
Y116000*
X177000Y119500*
X178000*
X185500Y127000*
X196000*
X198720Y129720*
Y133300*
X168750Y136850D02*
Y140750D01*
X171500Y143500*
Y168500*
X158750Y136850D02*
Y133250D01*
X160000Y132000*
X170500*
X171500Y133000*
Y140500*
X173500Y142500*
X189000*
X193602Y147102*
Y161700*
X156250Y136850D02*
Y143250D01*
X163750Y150750*
Y158150*
X151250Y136850D02*
Y124750D01*
X152500Y123500*
X172500*
X173500Y124500*
Y140000*
X174500Y141000*
X190000*
X196162Y147162*
Y161700*
X188485Y133300D02*
Y136985D01*
X195000Y143500*
X212000*
X213000Y144500*
Y155060*
X216243Y158248*
X230000*
X177500Y128500D02*
X181000D01*
X185800Y133300*
X188485*
X156000Y127500D02*
Y131500D01*
X156250Y131750*
Y136850*
X211000Y118000D02*
X211515Y118515D01*
Y133300*
X208957D02*
Y137457D01*
X210000Y138500*
X218000*
X224000Y132500*
Y126500*
X228000Y122500*
X232000*
X234500Y125000*
Y162000*
X206400Y133300D02*
Y126000D01*
X207000Y125400*
Y122500*
X193602Y133300D02*
Y137102D01*
X197000Y140500*
X218500*
X226000Y133000*
Y130752*
X230000Y126752*
X191043Y133300D02*
Y137043D01*
X196000Y142000*
X219500*
X226873Y134627*
X230000*
X196500Y122500D02*
X202500D01*
X203838Y123838*
Y133300*
X181000Y189500D02*
Y187000D01*
X181500Y186500*
X185000*
X188485D02*
Y183515D01*
X189000Y183000*
X190500*
X191043Y183543*
Y186500*
X163750Y158150D02*
Y153500D01*
X165750*
X166250Y154000*
Y158150*
X168000Y169500D02*
X170500D01*
X171500Y168500*
X159000Y169500D02*
X161000D01*
X164500Y166000*
X167500*
X168750Y164750*
Y158150*
X188500Y177500D02*
X190500D01*
X192000Y179000*
Y181500*
X193602Y183102*
Y186500*
X203838D02*
Y183662D01*
X210000Y177500*
Y172500*
X211500Y171000*
X216000*
X222500Y164500*
X232000*
X234500Y162000*
X198720Y161700D02*
Y165220D01*
X203000Y169500*
X203500*
X201280Y161700D02*
Y165280D01*
X202500Y166500*
X205000*
X208000Y169500*
X206400Y161700D02*
Y147600D01*
X207500Y146500*
X210000*
X208957Y161700D02*
Y154957D01*
X210000Y153913*
Y151500*
X211515Y161700D02*
Y167500D01*
X212015Y168000*
X214000*
X181000Y201000D02*
Y214500D01*
X183000Y216500*
X187500*
X188485Y208500D02*
Y202015D01*
X189500Y201000*
X194000*
X203000D02*
Y201662D01*
X203838Y202500*
Y208500*
X191043D02*
Y204957D01*
X192000Y204000*
X195500*
X198500Y201000*
X192500Y216500D02*
X193000D01*
X196162Y213338*
Y208500*
G54D28*
X147500Y121500D02*
Y147500D01*
X149000Y149000*
X155000*
X147500Y121500D02*
X148660Y120340D01*
Y112500*
X213000Y186500D02*
X218500D01*
X226812Y178188*
X230000*
X212500Y181000D02*
X217000D01*
X221000Y177000*
X167500Y191900D02*
X173400D01*
X173900*
X176000Y194000*
X198500*
X201280Y191220*
X167500Y191900D02*
X173400D01*
X175500Y194000*
X206400Y191343D02*
X207457Y192500D01*
X219278*
X225915Y186063*
X230000*
X213000Y208500D02*
X217000D01*
X223688Y201812*
X230000*
X208000Y202500D02*
X215978D01*
X224578Y193937*
X230000*
X210000Y214000D02*
X221000D01*
G54D29*
X155000Y149000D02*
X158500D01*
X161250Y151750*
Y158150*
X200500Y127000D02*
X201280Y127780D01*
Y133300*
X188485Y161700D02*
Y165515D01*
X188500Y165530*
Y170000*
X201280Y186500D02*
Y182220D01*
X206000Y177500*
Y175000*
X201280Y191220D02*
Y186500D01*
X191100Y165900D02*
Y156100D01*
G54D30*
X159500Y120500D02*
X163840D01*
Y112500*
X177500Y136500D02*
X183500D01*
X184500Y137500*
X163840Y112500D02*
Y120500D01*
X171000*
X185000Y186500D02*
X188485D01*
X177500Y173500D02*
X181500D01*
X183500Y175500*
Y185000*
X185000Y186500*
X188485*
X177500Y161000D02*
Y167500D01*
X181000*
X183500Y170000*
X188500*
X177500Y173500D02*
Y161000D01*
Y167500*
X208957Y182543D02*
X210500Y181000D01*
X212500*
X206400Y204100D02*
X208000Y202500D01*
X208957Y212957D02*
X210000Y214000D01*
G54D31*
X164000Y127500D02*
X169500D01*
X196500Y170000D02*
X199500D01*
X201000Y171500*
Y174000*
X196500Y177500D02*
X199500D01*
X201000Y176000*
Y174000*
X185300Y122500D02*
X186550D01*
X188500Y118800D02*
Y120050D01*
X191700Y122500D02*
X190450D01*
X171900Y213100D02*
X170650D01*
X163100D02*
X164350D01*
X167500Y204950D02*
Y206200D01*
X161250Y141250D02*
Y140000D01*
X191043Y166400D02*
Y165150D01*
Y157000D02*
Y158250D01*
X217200Y175000D02*
X215950D01*
X111300Y133909D02*
X110417Y133025D01*
X104583Y133909D02*
X105467Y133025D01*
X104583Y127191D02*
X105467Y128075D01*
X111300Y127191D02*
X110417Y128075D01*
X177500Y145000D02*
Y146250D01*
X181750Y149000D02*
X180500D01*
X177500Y153000D02*
Y151750D01*
X173250Y149000D02*
X174500D01*
X218200Y122500D02*
X216950D01*
X215000Y126200D02*
Y124950D01*
Y118800D02*
Y120050D01*
X143498Y179750D02*
X142615Y180634D01*
X143498Y185407D02*
X142615Y184523D01*
X137842Y185407D02*
X138725Y184523D01*
X137842Y179750D02*
X138725Y180634D01*
X131340Y116900D02*
Y115650D01*
X124190Y112500D02*
X125440D01*
X131340Y108100D02*
Y109350D01*
X138490Y112500D02*
X137240D01*
X177500Y184700D02*
Y183450D01*
X173800Y181500D02*
X175050D01*
X177500Y178300D02*
Y179550D01*
X167200Y127500D02*
X165950D01*
X160800D02*
X162050D01*
X201280Y138000D02*
Y136750D01*
Y128600D02*
Y129850D01*
X158750Y162550D02*
Y161300D01*
Y153750D02*
Y155000D01*
X199700Y170000D02*
X198450D01*
X196500Y173700D02*
Y172450D01*
X193300Y170000D02*
X194550D01*
X199700Y177500D02*
X198450D01*
X196500Y181200D02*
Y179950D01*
X193300Y177500D02*
X194550D01*
X196500Y173800D02*
Y175050D01*
X201280Y212600D02*
Y211350D01*
Y204400D02*
Y205650D01*
X181160Y108100D02*
Y109350D01*
X188310Y112500D02*
X187060D01*
X181160Y116900D02*
Y115650D01*
X232828Y139672D02*
X231945Y140555D01*
X232828Y145328D02*
X231945Y144445D01*
X227172Y145328D02*
X228055Y144445D01*
X227172Y139672D02*
X228055Y140555D01*
X233005Y118005D02*
X232121Y117121D01*
X226995Y118005D02*
X227879Y117121D01*
X226995Y111995D02*
X227879Y112879D01*
X233005Y111995D02*
X232121Y112879D01*
G54D32*
X207000Y122500D02*
Y119000D01*
X207500Y118500*
Y116500*
X214000Y110000*
X217350*
X196500Y122500D02*
Y118000D01*
X197650Y116850*
Y110000*
X154500Y164500D02*
X157500D01*
X158750Y163250*
X140670Y192422D02*
X145592Y187500D01*
X152000*
X154000Y185500*
Y174500*
X155000Y173500*
X166500*
X168000Y175000*
Y177500*
X148543Y192422D02*
X150578D01*
X159000Y184000*
Y177500*
G54D33*
X158750Y163250D02*
Y158150D01*
X211515Y186500D02*
X213000D01*
X208957D02*
Y182543D01*
X206400Y186500D02*
Y191343D01*
X201280Y208500D02*
Y213280D01*
X206400Y208500D02*
Y204100D01*
X208957Y208500D02*
Y212957D01*
X211515Y208500D02*
X213000D01*
X161200Y138400D02*
Y143100D01*
G54D34*
X201500Y155000D02*
X203838Y157338D01*
Y161700*
G54D35*
X138500Y103000D03*
X148000Y106500D03*
X187500Y103500D03*
X156500Y106500D03*
X179500Y105500D03*
X126500Y145500D03*
X131000Y119500D03*
X155000Y149000D03*
X168000Y147000D03*
X169500Y127500D03*
X171000Y120500D03*
X159500D03*
X184500Y137500D03*
X211000Y118000D03*
X210000Y146500D03*
X207500Y110000D03*
X200500Y127000D03*
X106000Y187000D03*
X122000Y156500D03*
X176000Y187500D03*
X184000Y161500D03*
X154500Y164500D03*
X181000Y189500D03*
X177500Y167500D03*
X201500Y155000D03*
X210000Y151500D03*
X214000Y168000D03*
X221000Y177000D03*
Y172000D03*
X201000Y174000D03*
X208000Y169500D03*
X203500D03*
X175500Y194000D03*
X175000Y217500D03*
Y207500D03*
Y212500D03*
X181000Y201000D03*
X203000D03*
X221000Y214000D03*
X204500Y216500D03*
X199000D03*
X198500Y201000D03*
X194000D03*
G54D36*
X234250Y115000D02*
G75*
G03X234250I-4250J0D01*
G01X137250Y211200D02*
G03X137250I-7250J0D01*
G01X112692Y130550D02*
G03X112692I-4750J0D01*
G01X140250D02*
G03X140250I-4750J0D01*
G01X137250Y163800D02*
G03X137250I-7250J0D01*
G01X236333Y109250D02*
Y212750D01*
X228250*
Y220587*
X171754*
X171900Y220000D02*
G03X171754Y220587I-1250J0D01*
G01X171900Y220000D02*
Y206200D01*
X170650Y204950D02*
G03X171900Y206200I0J1250D01*
G01X170650Y204950D02*
X164350D01*
X163100Y206200D02*
G03X164350Y204950I1250J0D01*
G01X163100Y206200D02*
Y220000D01*
X163246Y220587D02*
G03X163100Y220000I1104J-587D01*
G01X163246Y220587D02*
X150422D01*
X144578D02*
G03X150422I2922J-3087D01*
G01X144578D02*
X109750D01*
Y212750*
X101450*
Y164437*
X115747*
X117197Y162987D02*
G03X115747Y164437I-1450J-0D01*
G01X117197Y162987D02*
Y155113D01*
X116784Y154100D02*
G03X117197Y155113I-1037J1013D01*
G01X113622Y153663D02*
G03X116784Y154100I2193J-4213D01*
G01X113622Y153663D02*
X101450D01*
Y109250*
X109750*
Y101450*
X117663*
X120439Y109227D02*
G03X117663Y101450I-439J-4227D01*
G01X120439Y109227D02*
X119221Y110446D01*
X119417Y114150D02*
G03X119221Y110446I-3917J-1650D01*
G01X119417Y114150D02*
X119500D01*
X120667Y113667D02*
G03X119500Y114150I-1167J-1167D01*
G01X120667Y113667D02*
X124190Y110144D01*
X124190D02*
Y115650D01*
X125440Y116900D02*
G03X124190Y115650I0J-1250D01*
G01X125440Y116900D02*
X137240D01*
X138490Y115650D02*
G03X137240Y116900I-1250J0D01*
G01X138490Y115650D02*
Y109350D01*
X137240Y108100D02*
G03X138490Y109350I0J1250D01*
G01X137240Y108100D02*
X126234D01*
X126234D02*
X126683Y107650D01*
X139586*
X139350Y108500D02*
G03X139586Y107650I1650J0D01*
G01X139350Y108500D02*
Y117000D01*
X139833Y118167D02*
G03X139350Y117000I1167J-1167D01*
G01X139833Y118167D02*
X142850Y121183D01*
Y151350*
X129183*
X128150Y150317*
Y148006*
X124850D02*
G03X128150I1650J-2506D01*
G01X124850D02*
Y151000D01*
X125333Y152167D02*
G03X124850Y151000I1167J-1167D01*
G01X125333Y152167D02*
X127333Y154167D01*
X128500Y154650D02*
G03X127333Y154167I0J-1650D01*
G01X128500Y154650D02*
X144500D01*
X149250*
X149200Y155000D02*
G03X149250Y154650I1250J0D01*
G01X149200Y155000D02*
Y161300D01*
X150450Y162550D02*
G03X149200Y161300I0J-1250D01*
G01X150450Y162550D02*
X152050D01*
X152500Y162466D02*
G03X152050Y162550I-450J-1166D01*
G01X152950D02*
G03X152500Y162466I0J-1250D01*
G01X152950Y162550D02*
X154550D01*
X155000Y162466D02*
G03X154550Y162550I-450J-1166D01*
G01X155450D02*
G03X155000Y162466I0J-1250D01*
G01X155450Y162550D02*
X157050D01*
X157500Y162466D02*
G03X157050Y162550I-450J-1166D01*
G01X157950D02*
G03X157500Y162466I0J-1250D01*
G01X157950Y162550D02*
X159550D01*
X160000Y162466D02*
G03X159550Y162550I-450J-1166D01*
G01X160450D02*
G03X160000Y162466I0J-1250D01*
G01X160450Y162550D02*
X162050D01*
X162500Y162466D02*
G03X162050Y162550I-450J-1166D01*
G01X162950D02*
G03X162500Y162466I0J-1250D01*
G01X162950Y162550D02*
X164550D01*
X165000Y162466D02*
G03X164550Y162550I-450J-1166D01*
G01X165450D02*
G03X165000Y162466I0J-1250D01*
G01X165450Y162550D02*
X167050D01*
X167100Y162549D02*
G03X167050Y162550I-50J-1249D01*
G01X167100Y162549D02*
Y164067D01*
X166817Y164350*
X164500*
X163333Y164833D02*
G03X164500Y164350I1167J1167D01*
G01X163333Y164833D02*
X161813Y166354D01*
X161450Y166300D02*
G03X161813Y166354I0J1250D01*
G01X161450Y166300D02*
X156550D01*
X155300Y167550D02*
G03X156550Y166300I1250J0D01*
G01X155300Y167550D02*
Y171450D01*
X155316Y171650D02*
G03X155300Y171450I1234J-200D01*
G01X155316Y171650D02*
X155000D01*
X153692Y172192D02*
G03X155000Y171650I1308J1308D01*
G01X153692Y172192D02*
X152692Y173192D01*
X152150Y174500D02*
G03X152692Y173192I1850J0D01*
G01X152150Y174500D02*
Y178918D01*
X151293Y178578D02*
G03X152150Y178918I0J1250D01*
G01X151293Y178578D02*
X145793D01*
X144543Y179828D02*
G03X145793Y178578I1250J0D01*
G01X144543Y179828D02*
Y181580D01*
Y183577D02*
G03Y181580I-3873J-999D01*
G01Y183577D02*
Y185328D01*
X144677Y185892D02*
G03X144543Y185328I1116J-564D01*
G01X144284Y186192D02*
G03X144677Y185892I1308J1308D01*
G01X144284Y186192D02*
X141870Y188606D01*
X144607Y193131D02*
G03X141870Y188606I-3937J-709D01*
G01X152479Y193138D02*
G03X144607Y193131I-3936J-716D01*
G01X152479Y193138D02*
X160308Y185308D01*
X160850Y184000D02*
G03X160308Y185308I-1850J0D01*
G01X160850Y184000D02*
Y180700D01*
X161450*
X162700Y179450D02*
G03X161450Y180700I-1250J0D01*
G01X162700Y179450D02*
Y175550D01*
X162684Y175350D02*
G03X162700Y175550I-1234J200D01*
G01X162684Y175350D02*
X164316D01*
X164300Y175550D02*
G03X164316Y175350I1250J0D01*
G01X164300Y175550D02*
Y179450D01*
X165550Y180700D02*
G03X164300Y179450I0J-1250D01*
G01X165550Y180700D02*
X170450D01*
X171700Y179450D02*
G03X170450Y180700I-1250J0D01*
G01X171700Y179450D02*
Y175550D01*
X170450Y174300D02*
G03X171700Y175550I0J1250D01*
G01X170450Y174300D02*
X169712D01*
X169308Y173692D02*
G03X169712Y174300I-1308J1308D01*
G01X169308Y173692D02*
X168316Y172700D01*
X170450*
X171700Y171450D02*
G03X170450Y172700I-1250J0D01*
G01X171700Y171450D02*
Y170633D01*
X172667Y169667*
X173150Y168500D02*
G03X172667Y169667I-1650J0D01*
G01X173150Y168500D02*
Y144112D01*
X173500Y144150D02*
G03X173150Y144112I0J-1650D01*
G01X173500Y144150D02*
X188317D01*
X191952Y147785*
Y157000*
X191943D02*
G03X191952I0J1250D01*
G01X191943D02*
X190143D01*
X189764Y157059D02*
G03X190143Y157000I379J1191D01*
G01X189385D02*
G03X189764Y157059I0J1250D01*
G01X189385Y157000D02*
X187585D01*
X186335Y158250D02*
G03X187585Y157000I1250J0D01*
G01X186335Y158250D02*
Y161700D01*
Y165515*
X186350Y165769D02*
G03X186335Y165515I2135J-254D01*
G01X186350Y165769D02*
Y166316D01*
X185301Y167500D02*
G03X186350Y166316I1249J50D01*
G01X185301Y167500D02*
X184536D01*
X182768Y165732*
X181000Y165000D02*
G03X182768Y165732I0J2500D01*
G01X181000Y165000D02*
X180510D01*
X181750Y163750D02*
G03X180510Y165000I-1250J0D01*
G01X181750Y163750D02*
Y158250D01*
X180500Y157000D02*
G03X181750Y158250I0J1250D01*
G01X180500Y157000D02*
X174500D01*
X173250Y158250D02*
G03X174500Y157000I1250J0D01*
G01X173250Y158250D02*
Y163750D01*
X174500Y165000D02*
G03X173250Y163750I0J-1250D01*
G01X174500Y165000D02*
X175000D01*
Y165842*
Y169158D02*
G03Y165842I2500J-1658D01*
G01Y169158D02*
Y170301D01*
X173800Y171550D02*
G03X175000Y170301I1250J0D01*
G01X173800Y171550D02*
Y175450D01*
X175050Y176700D02*
G03X173800Y175450I0J-1250D01*
G01X175050Y176700D02*
X179950D01*
X180816Y176352D02*
G03X179950Y176700I-866J-902D01*
G01X180816Y176352D02*
X181000Y176536D01*
Y178872*
X179950Y178300D02*
G03X181000Y178872I0J1250D01*
G01X179950Y178300D02*
X175050D01*
X173800Y179550D02*
G03X175050Y178300I1250J0D01*
G01X173800Y179550D02*
Y183450D01*
X175050Y184700D02*
G03X173800Y183450I0J-1250D01*
G01X175050Y184700D02*
X179950D01*
X181000Y184128D02*
G03X179950Y184700I-1050J-678D01*
G01X181000Y184128D02*
Y184928D01*
X180333Y185333D02*
G03X181000Y184928I1167J1167D01*
G01X180333Y185333D02*
X179833Y185833D01*
X179350Y186994D02*
G03X179833Y185833I1650J6D01*
G01X178563Y191250D02*
G03X179350Y186994I2437J-1750D01*
G01X178563Y191250D02*
X177139D01*
X175845Y189955*
X173900Y189150D02*
G03X175845Y189955I0J2750D01*
G01X173900Y189150D02*
X173400D01*
X171900*
Y185000*
X170650Y183750D02*
G03X171900Y185000I0J1250D01*
G01X170650Y183750D02*
X164350D01*
X163100Y185000D02*
G03X164350Y183750I1250J0D01*
G01X163100Y185000D02*
Y198800D01*
X164350Y200050D02*
G03X163100Y198800I0J-1250D01*
G01X164350Y200050D02*
X170650D01*
X171900Y198800D02*
G03X170650Y200050I-1250J0D01*
G01X171900Y198800D02*
Y194650D01*
X172261*
X172708Y195097*
X176699Y196750D02*
G03X172708Y195097I-1199J-2750D01*
G01X176699Y196750D02*
X198500D01*
X200445Y195945D02*
G03X198500Y196750I-1945J-1945D01*
G01X200445Y195945D02*
X203225Y193165D01*
X203816Y192284D02*
G03X203225Y193165I-2536J-1064D01*
G01X204370Y193198D02*
G03X203816Y192284I2030J-1855D01*
G01X204370Y193198D02*
X205426Y194355D01*
X207457Y195250D02*
G03X205426Y194355I-0J-2750D01*
G01X207457Y195250D02*
X219278D01*
X219363Y195249D02*
G03X219278Y195250I-85J-2749D01*
G01X219363Y195249D02*
X214843Y199750D01*
X208000*
X205978Y200636D02*
G03X208000Y199750I2022J1864D01*
G01X200750Y199016D02*
G03X205978Y200636I2250J1984D01*
G01X196250Y199016D02*
G03X200750I2250J1984D01*
G01X191494Y199350D02*
G03X196250Y199016I2506J1650D01*
G01X191494Y199350D02*
X189500D01*
X188333Y199833D02*
G03X189500Y199350I1167J1167D01*
G01X188333Y199833D02*
X187318Y200848D01*
X186835Y202015D02*
G03X187318Y200848I1650J0D01*
G01X186835Y202015D02*
Y204733D01*
X186435Y205650D02*
G03X186835Y204733I1250J0D01*
G01X186435Y205650D02*
Y211350D01*
X187685Y212600D02*
G03X186435Y211350I0J-1250D01*
G01X187685Y212600D02*
X189285D01*
X189764Y212505D02*
G03X189285Y212600I-479J-1155D01*
G01X190243D02*
G03X189764Y212505I0J-1250D01*
G01X190243Y212600D02*
X191843D01*
X192322Y212505D02*
G03X191843Y212600I-479J-1155D01*
G01X192802D02*
G03X192323Y212505I-0J-1250D01*
G01X192802Y212600D02*
X194402D01*
X194512Y212595D02*
G03X194402Y212600I-110J-1245D01*
G01X194512Y212595D02*
Y212655D01*
X193652Y213515*
X191386Y213500D02*
G03X193652Y213515I1114J3000D01*
G01X191386Y213500D02*
X188614D01*
X184758Y214850D02*
G03X188614Y213500I2742J1650D01*
G01X184758Y214850D02*
X183683D01*
X182650Y213817*
Y203506*
X179350D02*
G03X182650I1650J-2506D01*
G01X179350D02*
Y214500D01*
X179833Y215667D02*
G03X179350Y214500I1167J-1167D01*
G01X179833Y215667D02*
X181833Y217667D01*
X183000Y218150D02*
G03X181833Y217667I0J-1650D01*
G01X183000Y218150D02*
X184758D01*
X188614Y219500D02*
G03X184758Y218150I-1114J-3000D01*
G01X188614Y219500D02*
X191386D01*
X195681Y216152D02*
G03X191386Y219500I-3181J348D01*
G01X195681Y216152D02*
X197328Y214505D01*
X197812Y213338D02*
G03X197328Y214505I-1650J0D01*
G01X197812Y213338D02*
Y212595D01*
X197920Y212600D02*
G03X197812Y212595I0J-1250D01*
G01X197920Y212600D02*
X199520D01*
X200000Y212504D02*
G03X199520Y212600I-480J-1154D01*
G01X200480D02*
G03X200000Y212504I0J-1250D01*
G01X200480Y212600D02*
X202080D01*
X202559Y212505D02*
G03X202080Y212600I-479J-1155D01*
G01X203038D02*
G03X202559Y212505I0J-1250D01*
G01X203038Y212600D02*
X204638D01*
X205119Y212504D02*
G03X204638Y212600I-481J-1154D01*
G01X205600D02*
G03X205119Y212504I0J-1250D01*
G01X205600Y212600D02*
X206482D01*
X207189Y214724D02*
G03X206482Y212600I1768J-1767D01*
G01X207189Y214724D02*
X207422Y214958D01*
X210000Y216750D02*
G03X207422Y214958I0J-2750D01*
G01X210000Y216750D02*
X219801D01*
Y211250D02*
G03Y216750I1199J2750D01*
G01Y211250D02*
X217015D01*
X218945Y210445D02*
G03X217015Y211250I-1945J-1945D01*
G01X218945Y210445D02*
X224827Y204562D01*
X226000*
X227250Y205812D02*
G03X226000Y204562I0J-1250D01*
G01X227250Y205812D02*
X232750D01*
X234000Y204562D02*
G03X232750Y205812I-1250J-0D01*
G01X234000Y204562D02*
Y199062D01*
X232750Y197812D02*
G03X234000Y199062I0J1250D01*
G01X232750Y197812D02*
X230992D01*
X230709Y190000D02*
G03X230992Y197812I-709J3937D01*
G01X230704Y182126D02*
G03X230709Y190000I-704J3937D01*
G01X227095Y175438D02*
G03X230704Y182126I2905J2750D01*
G01X227095Y175438D02*
X226812D01*
X224867Y176244D02*
G03X226812Y175438I1945J1944D01*
G01X224867Y176244D02*
X223998Y177113D01*
X218208Y175903D02*
G03X223998Y177113I2792J1097D01*
G01X218208Y175903D02*
X217200Y176911D01*
Y172550*
X217146Y172187D02*
G03X217200Y172550I-1196J363D01*
G01X217167Y172167D02*
G03X217146Y172187I-1167J-1167D01*
G01X217167Y172167D02*
X223183Y166150D01*
X232000*
X233167Y165667D02*
G03X232000Y166150I-1167J-1167D01*
G01X233167Y165667D02*
X235667Y163167D01*
X236150Y162000D02*
G03X235667Y163167I-1650J0D01*
G01X236150Y162000D02*
Y125000D01*
X235667Y123833D02*
G03X236150Y125000I-1167J1167D01*
G01X235667Y123833D02*
X233167Y121333D01*
X232000Y120850D02*
G03X233167Y121333I0J1650D01*
G01X232000Y120850D02*
X228000D01*
X226833Y121333D02*
G03X228000Y120850I1167J1167D01*
G01X226833Y121333D02*
X222833Y125333D01*
X222350Y126500D02*
G03X222833Y125333I1650J0D01*
G01X222350Y126500D02*
Y131817D01*
X217317Y136850*
X213661*
X213665Y136750D02*
G03X213661Y136850I-1250J0D01*
G01X213665Y136750D02*
Y129850D01*
X213165Y128850D02*
G03X213665Y129850I-750J1000D01*
G01X213165Y128850D02*
Y126200D01*
X216950*
X218200Y124950D02*
G03X216950Y126200I-1250J0D01*
G01X218200Y124950D02*
Y120050D01*
X216950Y118800D02*
G03X218200Y120050I0J1250D01*
G01X216950Y118800D02*
X213891D01*
X213437Y116250D02*
G03X213891Y118800I-2437J1750D01*
G01X213437Y116250D02*
X222350D01*
X223600Y115000D02*
G03X222350Y116250I-1250J0D01*
G01X223600Y115000D02*
Y105000D01*
X222350Y103750D02*
G03X223600Y105000I0J1250D01*
G01X222350Y103750D02*
X212350D01*
X211100Y105000D02*
G03X212350Y103750I1250J0D01*
G01X211100Y105000D02*
Y110284D01*
X206192Y115192*
X205650Y116500D02*
G03X206192Y115192I1850J0D01*
G01X205650Y116500D02*
Y117735D01*
X205161Y118800D02*
G03X205650Y117735I1839J200D01*
G01X205161Y118800D02*
X205050D01*
X203800Y120050D02*
G03X205050Y118800I1250J0D01*
G01X203800Y120050D02*
Y121466D01*
X203800D02*
X203667Y121333D01*
X202500Y120850D02*
G03X203667Y121333I0J1650D01*
G01X202500Y120850D02*
X199700D01*
Y120050*
X198450Y118800D02*
G03X199700Y120050I0J1250D01*
G01X198450Y118800D02*
X198350D01*
Y118766*
X198958Y118158*
X199500Y116850D02*
G03X198958Y118158I-1850J0D01*
G01X199500Y116850D02*
Y116250D01*
X202650*
X203900Y115000D02*
G03X202650Y116250I-1250J0D01*
G01X203900Y115000D02*
Y105000D01*
X202650Y103750D02*
G03X203900Y105000I0J1250D01*
G01X202650Y103750D02*
X192650D01*
X191400Y105000D02*
G03X192650Y103750I1250J0D01*
G01X191400Y105000D02*
Y115000D01*
X192650Y116250D02*
G03X191400Y115000I0J-1250D01*
G01X192650Y116250D02*
X195634D01*
X195192Y116692*
X194650Y118000D02*
G03X195192Y116692I1850J0D01*
G01X194650Y118000D02*
Y118800D01*
X194550*
X193300Y120050D02*
G03X194550Y118800I1250J0D01*
G01X193300Y120050D02*
Y124950D01*
X193366Y125350D02*
G03X193300Y124950I1184J-400D01*
G01X193366Y125350D02*
X191634D01*
X191700Y124950D02*
G03X191634Y125350I-1250J0D01*
G01X191700Y124950D02*
Y120050D01*
X190450Y118800D02*
G03X191700Y120050I0J1250D01*
G01X190450Y118800D02*
X186550D01*
X185300Y120050D02*
G03X186550Y118800I1250J0D01*
G01X185300Y120050D02*
Y124466D01*
X185300D02*
X179167Y118333D01*
X178000Y117850D02*
G03X179167Y118333I0J1650D01*
G01X178000Y117850D02*
X177683D01*
X176734Y116900*
X176734D02*
X187060D01*
X188310Y115650D02*
G03X187060Y116900I-1250J0D01*
G01X188310Y115650D02*
Y109350D01*
X187060Y108100D02*
G03X188310Y109350I0J1250D01*
G01X187060Y108100D02*
X175260D01*
X175150Y108105D02*
G03X175260Y108100I110J1245D01*
G01X175150Y108105D02*
Y105500D01*
X174667Y104333D02*
G03X175150Y105500I-1167J1167D01*
G01X174667Y104333D02*
X173984Y103650D01*
X173984D02*
X184504D01*
X189690Y101450D02*
G03X184504Y103650I-2190J2050D01*
G01X189690Y101450D02*
X228250D01*
Y109250*
X236333*
X160866Y130350D02*
G03X160800Y129950I1184J-400D01*
G01X160866Y130350D02*
X160000D01*
X158859Y130808D02*
G03X160000Y130350I1141J1192D01*
G01X159200Y129950D02*
G03X158859Y130808I-1250J0D01*
G01X159200Y129950D02*
Y125150D01*
X160800*
Y129950*
X158800Y130867D02*
G03X157950Y131200I-850J-917D01*
G01X158800Y130867D02*
X157900Y131766D01*
X157900D02*
Y131750D01*
X157806Y131200D02*
G03X157900Y131750I-1556J550D01*
G01X157806Y131200D02*
X157950D01*
X169850Y144183D02*
Y153787D01*
X169550Y153750D02*
G03X169850Y153787I0J1250D01*
G01X169550Y153750D02*
X167950D01*
X167881Y153752D02*
G03X167950Y153750I69J1248D01*
G01X167417Y152833D02*
G03X167881Y153752I-1167J1167D01*
G01X167417Y152833D02*
X166917Y152333D01*
X165750Y151850D02*
G03X166917Y152333I0J1650D01*
G01X165750Y151850D02*
X165400D01*
Y150750*
X164917Y149583D02*
G03X165400Y150750I-1167J1167D01*
G01X164917Y149583D02*
X157900Y142567D01*
Y141249*
X157950Y141250D02*
G03X157900Y141249I0J-1250D01*
G01X157950Y141250D02*
X159550D01*
X160000Y141166D02*
G03X159550Y141250I-450J-1166D01*
G01X160450D02*
G03X160000Y141166I0J-1250D01*
G01X160450Y141250D02*
X162050D01*
X162500Y141166D02*
G03X162050Y141250I-450J-1166D01*
G01X162950D02*
G03X162500Y141166I0J-1250D01*
G01X162950Y141250D02*
X164550D01*
X165000Y141166D02*
G03X164550Y141250I-450J-1166D01*
G01X165450D02*
G03X165000Y141166I0J-1250D01*
G01X165450Y141250D02*
X167050D01*
X167176Y141244D02*
G03X167050Y141250I-126J-1244D01*
G01X167583Y141917D02*
G03X167176Y141244I1167J-1167D01*
G01X167583Y141917D02*
X169850Y144183D01*
X159100Y152641D02*
Y153750D01*
X157950*
X157500Y153834D02*
G03X157950Y153750I450J1166D01*
G01X157050D02*
G03X157500Y153834I0J1250D01*
G01X157050Y153750D02*
X155450D01*
X155099Y153800D02*
G03X155450Y153750I351J1200D01*
G01X154917Y153583D02*
G03X155099Y153800I-1167J1167D01*
G01X154917Y153583D02*
X153167Y151833D01*
X153077Y151750D02*
G03X153167Y151833I-1077J1250D01*
G01X153077Y151750D02*
X153801D01*
X157092Y151150D02*
G03X153801Y151750I-2092J-2150D01*
G01X157092Y151150D02*
X157609D01*
X159100Y152641*
X171850Y125183D02*
Y131016D01*
X171850D02*
X171667Y130833D01*
X170500Y130350D02*
G03X171667Y130833I0J1650D01*
G01X170500Y130350D02*
X167134D01*
X167200Y129950D02*
G03X167134Y130350I-1250J0D01*
G01X167200Y129950D02*
Y125150D01*
X171817*
X171850Y125183*
X202188Y203888D02*
Y204405D01*
X202080Y204400D02*
G03X202188Y204405I0J1250D01*
G01X202080Y204400D02*
X200480D01*
X200000Y204496D02*
G03X200480Y204400I480J1154D01*
G01X199520D02*
G03X200000Y204496I0J1250D01*
G01X199520Y204400D02*
X197920D01*
X197441Y204495D02*
G03X197920Y204400I479J1155D01*
G01X197366Y204467D02*
G03X197441Y204495I-404J1183D01*
G01X197366Y204467D02*
X197895Y203938D01*
X200750Y202984D02*
G03X197895Y203938I-2250J-1984D01*
G01X202188Y203888D02*
G03X200750Y202984I812J-2888D01*
G01X202188Y124522D02*
Y128600D01*
X202180D02*
G03X202188I0J1250D01*
G01X202180D02*
X200380D01*
X200000Y128659D02*
G03X200380Y128600I380J1191D01*
G01X199978Y128652D02*
G03X200000Y128659I-358J1198D01*
G01X199887Y128553D02*
G03X199978Y128652I-1167J1167D01*
G01X199887Y128553D02*
X197534Y126200D01*
X197534D02*
X198450D01*
X199700Y124950D02*
G03X198450Y126200I-1250J0D01*
G01X199700Y124950D02*
Y124150D01*
X201817*
X202188Y124522*
X207790Y138623D02*
X208016Y138850D01*
X208016D02*
X197683D01*
X196834Y138000*
X196834D02*
X197062D01*
X197441Y137941D02*
G03X197062Y138000I-379J-1191D01*
G01X197820D02*
G03X197441Y137941I0J-1250D01*
G01X197820Y138000D02*
X199620D01*
X200000Y137941D02*
G03X199620Y138000I-380J-1191D01*
G01X200380D02*
G03X200000Y137941I0J-1250D01*
G01X200380Y138000D02*
X202180D01*
X202559Y137941D02*
G03X202180Y138000I-379J-1191D01*
G01X202938D02*
G03X202559Y137941I0J-1250D01*
G01X202938Y138000D02*
X204738D01*
X205119Y137941D02*
G03X204738Y138000I-381J-1191D01*
G01X205500D02*
G03X205119Y137941I0J-1250D01*
G01X205500Y138000D02*
X207300D01*
X207397Y137996D02*
G03X207300Y138000I-97J-1246D01*
G01X207790Y138623D02*
G03X207397Y137996I1167J-1166D01*
G01X202815Y177644D02*
G03X202800Y177450I1235J-194D01*
G01X202815Y177644D02*
X199760Y180700D01*
X199130Y182220D02*
G03X199760Y180700I2150J0D01*
G01X199130Y182220D02*
Y182400D01*
X197920*
X197441Y182495D02*
G03X197920Y182400I479J1155D01*
G01X196962D02*
G03X197441Y182495I-0J1250D01*
G01X196962Y182400D02*
X195362D01*
X195107Y182426D02*
G03X195362Y182400I255J1224D01*
G01X194768Y181935D02*
G03X195107Y182426I-1166J1167D01*
G01X194768Y181935D02*
X193700Y180867D01*
X194550Y181200D02*
G03X193700Y180867I0J-1250D01*
G01X194550Y181200D02*
X198450D01*
X199700Y179950D02*
G03X198450Y181200I-1250J0D01*
G01X199700Y179950D02*
Y175050D01*
X198450Y173800D02*
G03X199700Y175050I0J1250D01*
G01X198450Y173800D02*
X194550D01*
X193300Y175050D02*
G03X194550Y173800I1250J0D01*
G01X193300Y175050D02*
Y177984D01*
X193167Y177833D02*
G03X193300Y177984I-1167J1167D01*
G01X193167Y177833D02*
X191700Y176367D01*
Y175050*
X190450Y173800D02*
G03X191700Y175050I0J1250D01*
G01X190450Y173800D02*
X186550D01*
X185635Y174199D02*
G03X186550Y173800I915J851D01*
G01X185268Y173732D02*
G03X185635Y174199I-1768J1768D01*
G01X185268Y173732D02*
X184036Y172500D01*
X185301*
X186550Y173700D02*
G03X185301Y172500I0J-1250D01*
G01X186550Y173700D02*
X190450D01*
X191700Y172450D02*
G03X190450Y173700I-1250J0D01*
G01X191700Y172450D02*
Y167550D01*
X190940Y166400D02*
G03X191700Y167550I-490J1150D01*
G01X190940Y166400D02*
X191943D01*
X192322Y166341D02*
G03X191943Y166400I-379J-1191D01*
G01X192702D02*
G03X192323Y166341I-0J-1250D01*
G01X192702Y166400D02*
X194060D01*
X193300Y167550D02*
G03X194060Y166400I1250J0D01*
G01X193300Y167550D02*
Y172450D01*
X194550Y173700D02*
G03X193300Y172450I0J-1250D01*
G01X194550Y173700D02*
X198450D01*
X199700Y172450D02*
G03X198450Y173700I-1250J0D01*
G01X199700Y172450D02*
Y168534D01*
X199700D02*
X200504Y169338D01*
X202807Y172419D02*
G03X200504Y169338I693J-2919D01*
G01X202800Y172550D02*
G03X202807Y172419I1250J0D01*
G01X202800Y172550D02*
Y177450D01*
X232850Y137433D02*
Y139693D01*
X230709Y138563D02*
G03X232850Y139693I-709J3937D01*
G01Y137433D02*
G03X230709Y138563I-2850J-2806D01*
G01X232850Y145307D02*
Y147567D01*
X230709Y146437D02*
G03X232850Y147567I-709J3936D01*
G01Y145307D02*
G03X230709Y146437I-2850J-2807D01*
G01X229291D02*
G03Y138563I709J-3937D01*
G01X229008Y154248D02*
G03X229291Y146437I992J-3875D01*
G01X229008Y154248D02*
X227250D01*
X226000Y155498D02*
G03X227250Y154248I1250J0D01*
G01X226000Y155498D02*
Y156598D01*
X216919*
X214650Y154368*
Y144500*
X214414Y143650D02*
G03X214650Y144500I-1414J850D01*
G01X214414Y143650D02*
X219500D01*
X220667Y143167D02*
G03X219500Y143650I-1167J-1167D01*
G01X220667Y143167D02*
X226803Y137031D01*
X229291Y138563D02*
G03X226803Y137031I709J-3936D01*
G01X234250Y115000D02*
G03X234250I-4250J0D01*
G01X137250Y211200D02*
G03X137250I-7250J0D01*
G01X119750Y125500D02*
Y119500D01*
X118500Y118250D02*
G03X119750Y119500I0J1250D01*
G01X118500Y118250D02*
X112500D01*
X111250Y119500D02*
G03X112500Y118250I1250J0D01*
G01X111250Y119500D02*
Y125500D01*
X112500Y126750D02*
G03X111250Y125500I0J-1250D01*
G01X112500Y126750D02*
X118500D01*
X119750Y125500D02*
G03X118500Y126750I-1250J0D01*
G01X112692Y130550D02*
G03X112692I-4750J0D01*
G01X140250D02*
G03X140250I-4750J0D01*
G01X137250Y163800D02*
G03X137250I-7250J0D01*
G01X181750Y151750D02*
Y146250D01*
X180500Y145000D02*
G03X181750Y146250I0J1250D01*
G01X180500Y145000D02*
X174500D01*
X173250Y146250D02*
G03X174500Y145000I1250J0D01*
G01X173250Y146250D02*
Y151750D01*
X174500Y153000D02*
G03X173250Y151750I0J-1250D01*
G01X174500Y153000D02*
X180500D01*
X181750Y151750D02*
G03X180500Y153000I-1250J0D01*
G01X225235Y138599D02*
X229117D01*
X214650Y146249D02*
X228604D01*
X214650Y146699D02*
X228420D01*
X214650Y153899D02*
X228110D01*
X225685Y138149D02*
X228104D01*
X224785Y139049D02*
X227978D01*
X214650Y145799D02*
X227738D01*
X214650Y147149D02*
X227633D01*
X214650Y153449D02*
X227442D01*
X226135Y137699D02*
X227438D01*
X224335Y139499D02*
X227356D01*
X214650Y145349D02*
X227192D01*
X214650Y147599D02*
X227119D01*
X214650Y152999D02*
X226982D01*
X226585Y137249D02*
X226979D01*
X223885Y139949D02*
X226919D01*
X214650Y144899D02*
X226799D01*
X214650Y154349D02*
X226759D01*
X214650Y148049D02*
X226745D01*
X214650Y152549D02*
X226643D01*
X223435Y140399D02*
X226596D01*
X214649Y144449D02*
X226507D01*
X214650Y148499D02*
X226466D01*
X214650Y152099D02*
X226391D01*
X222985Y140849D02*
X226357D01*
X214572Y143999D02*
X226291D01*
X214650Y148949D02*
X226262D01*
X215088Y154799D02*
X226214D01*
X214650Y151649D02*
X226209D01*
X222535Y141299D02*
X226185D01*
X220069Y143549D02*
X226140D01*
X214650Y149399D02*
X226121D01*
X214650Y151199D02*
X226086D01*
X222085Y141749D02*
X226071D01*
X220735Y143099D02*
X226045D01*
X214650Y149849D02*
X226035D01*
X215546Y155249D02*
X226025D01*
X214650Y150749D02*
X226018D01*
X221635Y142199D02*
X226011D01*
X221185Y142649D02*
X226003D01*
X214650Y150299D02*
X226001D01*
X216461Y156149D02*
X226000D01*
X216003Y155699D02*
X226000D01*
X232367Y147149D02*
X232850D01*
X231580Y146699D02*
X232850D01*
X231396Y146249D02*
X232850D01*
X232262Y145799D02*
X232850D01*
X232808Y145349D02*
X232850D01*
X232644Y139499D02*
X232850D01*
X232022Y139049D02*
X232850D01*
X230883Y138599D02*
X232850D01*
X231896Y138149D02*
X232850D01*
X232562Y137699D02*
X232850D01*
X199700Y177299D02*
X202800D01*
X199700Y176849D02*
X202800D01*
X199700Y176399D02*
X202800D01*
X199700Y175949D02*
X202800D01*
X199700Y175499D02*
X202800D01*
X199700Y175049D02*
X202800D01*
X199616Y174599D02*
X202800D01*
X199316Y174149D02*
X202800D01*
X198508Y173699D02*
X202800D01*
X199412Y173249D02*
X202800D01*
X199650Y172799D02*
X202800D01*
X199700Y177749D02*
X202711D01*
X199700Y172349D02*
X202559D01*
X199700Y178199D02*
X202261D01*
X199700Y178649D02*
X201811D01*
X199700Y171899D02*
X201698D01*
X199700Y179099D02*
X201361D01*
X199700Y171449D02*
X201219D01*
X199700Y179549D02*
X200911D01*
X199700Y170999D02*
X200901D01*
X199700Y170549D02*
X200689D01*
X199700Y170099D02*
X200560D01*
X199700Y169649D02*
X200504D01*
X199699Y179999D02*
X200461D01*
X199700Y169199D02*
X200365D01*
X199596Y180449D02*
X200011D01*
X199700Y168749D02*
X199915D01*
X199264Y180899D02*
X199584D01*
X194182Y181349D02*
X199314D01*
X194632Y181799D02*
X199172D01*
X195014Y182249D02*
X199130D01*
X190508Y173699D02*
X194492D01*
X191126Y166499D02*
X193874D01*
X193732Y180899D02*
X193736D01*
X191316Y174149D02*
X193684D01*
X191412Y173249D02*
X193588D01*
X191546Y166949D02*
X193454D01*
X191616Y174599D02*
X193384D01*
X191650Y172799D02*
X193350D01*
X191691Y167399D02*
X193309D01*
X193082Y177749D02*
X193300D01*
X192632Y177299D02*
X193300D01*
X192182Y176849D02*
X193300D01*
X191732Y176399D02*
X193300D01*
X191700Y175949D02*
X193300D01*
X191700Y175499D02*
X193300D01*
X191700Y175049D02*
X193300D01*
X191700Y172349D02*
X193300D01*
X191700Y171899D02*
X193300D01*
X191700Y171449D02*
X193300D01*
X191700Y170999D02*
X193300D01*
X191700Y170549D02*
X193300D01*
X191700Y170099D02*
X193300D01*
X191700Y169649D02*
X193300D01*
X191700Y169199D02*
X193300D01*
X191700Y168749D02*
X193300D01*
X191700Y168299D02*
X193300D01*
X191700Y167849D02*
X193300D01*
X185234Y173699D02*
X186492D01*
X185603Y174149D02*
X185684D01*
X184784Y173249D02*
X185588D01*
X184334Y172799D02*
X185350D01*
X197432Y138599D02*
X207766D01*
X196982Y138149D02*
X207459D01*
X199582Y128249D02*
X202188D01*
X199132Y127799D02*
X202188D01*
X198682Y127349D02*
X202188D01*
X198232Y126899D02*
X202188D01*
X197782Y126449D02*
X202188D01*
X199130Y125999D02*
X202188D01*
X199547Y125549D02*
X202188D01*
X199691Y125099D02*
X202188D01*
X199700Y124649D02*
X202188D01*
X199700Y124199D02*
X201865D01*
X197535Y204299D02*
X202188D01*
X199441Y203849D02*
X202059D01*
X200302Y203399D02*
X201198D01*
X171782Y130949D02*
X171850D01*
X171185Y130499D02*
X171850D01*
X167196Y130049D02*
X171850D01*
X167200Y129599D02*
X171850D01*
X167200Y129149D02*
X171850D01*
X167200Y128699D02*
X171850D01*
X167200Y128249D02*
X171850D01*
X167200Y127799D02*
X171850D01*
X167200Y127349D02*
X171850D01*
X167200Y126899D02*
X171850D01*
X167200Y126449D02*
X171850D01*
X167200Y125999D02*
X171850D01*
X167200Y125549D02*
X171850D01*
X154782Y153449D02*
X159100D01*
X154332Y152999D02*
X159100D01*
X153882Y152549D02*
X159008D01*
X153432Y152099D02*
X158558D01*
X156409Y151649D02*
X158108D01*
X157041Y151199D02*
X157658D01*
X167805Y153449D02*
X169850D01*
X167561Y152999D02*
X169850D01*
X167132Y152549D02*
X169850D01*
X166621Y152099D02*
X169850D01*
X165400Y151649D02*
X169850D01*
X165400Y151199D02*
X169850D01*
X165400Y150749D02*
X169850D01*
X165337Y150299D02*
X169850D01*
X165132Y149849D02*
X169850D01*
X164732Y149399D02*
X169850D01*
X164282Y148949D02*
X169850D01*
X163832Y148499D02*
X169850D01*
X163382Y148049D02*
X169850D01*
X162932Y147599D02*
X169850D01*
X162482Y147149D02*
X169850D01*
X162032Y146699D02*
X169850D01*
X161582Y146249D02*
X169850D01*
X161132Y145799D02*
X169850D01*
X160682Y145349D02*
X169850D01*
X160232Y144899D02*
X169850D01*
X159782Y144449D02*
X169850D01*
X159332Y143999D02*
X169665D01*
X158882Y143549D02*
X169215D01*
X158432Y143099D02*
X168765D01*
X157982Y142649D02*
X168315D01*
X157900Y142199D02*
X167865D01*
X157900Y141749D02*
X167437D01*
X157900Y141299D02*
X167194D01*
X158702Y130949D02*
X158718D01*
X157862Y131399D02*
X158268D01*
X159196Y130049D02*
X160804D01*
X159200Y129599D02*
X160800D01*
X159200Y129149D02*
X160800D01*
X159200Y128699D02*
X160800D01*
X159200Y128249D02*
X160800D01*
X159200Y127799D02*
X160800D01*
X159200Y127349D02*
X160800D01*
X159200Y126899D02*
X160800D01*
X159200Y126449D02*
X160800D01*
X159200Y125999D02*
X160800D01*
X159200Y125549D02*
X160800D01*
X159073Y130499D02*
X159315D01*
X223537Y212399D02*
X236333D01*
X223189Y211949D02*
X236333D01*
X222656Y211499D02*
X236333D01*
X221538Y211049D02*
X236333D01*
X218777Y210599D02*
X236333D01*
X219240Y210149D02*
X236333D01*
X219690Y209699D02*
X236333D01*
X220140Y209249D02*
X236333D01*
X220590Y208799D02*
X236333D01*
X221040Y208349D02*
X236333D01*
X221490Y207899D02*
X236333D01*
X221940Y207449D02*
X236333D01*
X222390Y206999D02*
X236333D01*
X222840Y206549D02*
X236333D01*
X223290Y206099D02*
X236333D01*
X233367Y205649D02*
X236333D01*
X233826Y205199D02*
X236333D01*
X233986Y204749D02*
X236333D01*
X234000Y204299D02*
X236333D01*
X234000Y203849D02*
X236333D01*
X234000Y203399D02*
X236333D01*
X234000Y202949D02*
X236333D01*
X234000Y202499D02*
X236333D01*
X234000Y202049D02*
X236333D01*
X234000Y201599D02*
X236333D01*
X234000Y201149D02*
X236333D01*
X234000Y200699D02*
X236333D01*
X234000Y200249D02*
X236333D01*
X234000Y199799D02*
X236333D01*
X234000Y199349D02*
X236333D01*
X233989Y198899D02*
X236333D01*
X233839Y198449D02*
X236333D01*
X233408Y197999D02*
X236333D01*
X231719Y197549D02*
X236333D01*
X232450Y197099D02*
X236333D01*
X232940Y196649D02*
X236333D01*
X233299Y196199D02*
X236333D01*
X233566Y195749D02*
X236333D01*
X233761Y195299D02*
X236333D01*
X233895Y194849D02*
X236333D01*
X233973Y194399D02*
X236333D01*
X234000Y193949D02*
X236333D01*
X233976Y193499D02*
X236333D01*
X233900Y193049D02*
X236333D01*
X233770Y192599D02*
X236333D01*
X233578Y192149D02*
X236333D01*
X233315Y191699D02*
X236333D01*
X232962Y191249D02*
X236333D01*
X232481Y190799D02*
X236333D01*
X231768Y190349D02*
X236333D01*
X231136Y189899D02*
X236333D01*
X232131Y189449D02*
X236333D01*
X232717Y188999D02*
X236333D01*
X233134Y188549D02*
X236333D01*
X233443Y188099D02*
X236333D01*
X233672Y187649D02*
X236333D01*
X233836Y187199D02*
X236333D01*
X233941Y186749D02*
X236333D01*
X233993Y186299D02*
X236333D01*
X233994Y185849D02*
X236333D01*
X233944Y185399D02*
X236333D01*
X233842Y184949D02*
X236333D01*
X233681Y184499D02*
X236333D01*
X233456Y184049D02*
X236333D01*
X233151Y183599D02*
X236333D01*
X232740Y183149D02*
X236333D01*
X232163Y182699D02*
X236333D01*
X231204Y182249D02*
X236333D01*
X231722Y181799D02*
X236333D01*
X232452Y181349D02*
X236333D01*
X232942Y180899D02*
X236333D01*
X233300Y180449D02*
X236333D01*
X233567Y179999D02*
X236333D01*
X233762Y179549D02*
X236333D01*
X233895Y179099D02*
X236333D01*
X233973Y178649D02*
X236333D01*
X234000Y178199D02*
X236333D01*
X233976Y177749D02*
X236333D01*
X233900Y177299D02*
X236333D01*
X233769Y176849D02*
X236333D01*
X233577Y176399D02*
X236333D01*
X233314Y175949D02*
X236333D01*
X232961Y175499D02*
X236333D01*
X232478Y175049D02*
X236333D01*
X231765Y174599D02*
X236333D01*
X221933Y174149D02*
X236333D01*
X217200Y173699D02*
X236333D01*
X217200Y173249D02*
X236333D01*
X217200Y172799D02*
X236333D01*
X217184Y172349D02*
X236333D01*
X217435Y171899D02*
X236333D01*
X217885Y171449D02*
X236333D01*
X218335Y170999D02*
X236333D01*
X218785Y170549D02*
X236333D01*
X219235Y170099D02*
X236333D01*
X219685Y169649D02*
X236333D01*
X220135Y169199D02*
X236333D01*
X220585Y168749D02*
X236333D01*
X221035Y168299D02*
X236333D01*
X221485Y167849D02*
X236333D01*
X221935Y167399D02*
X236333D01*
X222385Y166949D02*
X236333D01*
X222835Y166499D02*
X236333D01*
X232569Y166049D02*
X236333D01*
X233235Y165599D02*
X236333D01*
X233685Y165149D02*
X236333D01*
X234135Y164699D02*
X236333D01*
X234585Y164249D02*
X236333D01*
X235035Y163799D02*
X236333D01*
X235485Y163349D02*
X236333D01*
X235884Y162899D02*
X236333D01*
X236088Y162449D02*
X236333D01*
X236150Y161999D02*
X236333D01*
X236150Y161549D02*
X236333D01*
X236150Y161099D02*
X236333D01*
X236150Y160649D02*
X236333D01*
X236150Y160199D02*
X236333D01*
X236150Y159749D02*
X236333D01*
X236150Y159299D02*
X236333D01*
X236150Y158849D02*
X236333D01*
X236150Y158399D02*
X236333D01*
X236150Y157949D02*
X236333D01*
X236150Y157499D02*
X236333D01*
X236150Y157049D02*
X236333D01*
X236150Y156599D02*
X236333D01*
X236150Y156149D02*
X236333D01*
X236150Y155699D02*
X236333D01*
X236150Y155249D02*
X236333D01*
X236150Y154799D02*
X236333D01*
X236150Y154349D02*
X236333D01*
X236150Y153899D02*
X236333D01*
X236150Y153449D02*
X236333D01*
X236150Y152999D02*
X236333D01*
X236150Y152549D02*
X236333D01*
X236150Y152099D02*
X236333D01*
X236150Y151649D02*
X236333D01*
X236150Y151199D02*
X236333D01*
X236150Y150749D02*
X236333D01*
X236150Y150299D02*
X236333D01*
X236150Y149849D02*
X236333D01*
X236150Y149399D02*
X236333D01*
X236150Y148949D02*
X236333D01*
X236150Y148499D02*
X236333D01*
X236150Y148049D02*
X236333D01*
X236150Y147599D02*
X236333D01*
X236150Y147149D02*
X236333D01*
X236150Y146699D02*
X236333D01*
X236150Y146249D02*
X236333D01*
X236150Y145799D02*
X236333D01*
X236150Y145349D02*
X236333D01*
X236150Y144899D02*
X236333D01*
X236150Y144449D02*
X236333D01*
X236150Y143999D02*
X236333D01*
X236150Y143549D02*
X236333D01*
X236150Y143099D02*
X236333D01*
X236150Y142649D02*
X236333D01*
X236150Y142199D02*
X236333D01*
X236150Y141749D02*
X236333D01*
X236150Y141299D02*
X236333D01*
X236150Y140849D02*
X236333D01*
X236150Y140399D02*
X236333D01*
X236150Y139949D02*
X236333D01*
X236150Y139499D02*
X236333D01*
X236150Y139049D02*
X236333D01*
X236150Y138599D02*
X236333D01*
X236150Y138149D02*
X236333D01*
X236150Y137699D02*
X236333D01*
X236150Y137249D02*
X236333D01*
X236150Y136799D02*
X236333D01*
X236150Y136349D02*
X236333D01*
X236150Y135899D02*
X236333D01*
X236150Y135449D02*
X236333D01*
X236150Y134999D02*
X236333D01*
X236150Y134549D02*
X236333D01*
X236150Y134099D02*
X236333D01*
X236150Y133649D02*
X236333D01*
X236150Y133199D02*
X236333D01*
X236150Y132749D02*
X236333D01*
X236150Y132299D02*
X236333D01*
X236150Y131849D02*
X236333D01*
X236150Y131399D02*
X236333D01*
X236150Y130949D02*
X236333D01*
X236150Y130499D02*
X236333D01*
X236150Y130049D02*
X236333D01*
X236150Y129599D02*
X236333D01*
X236150Y129149D02*
X236333D01*
X236150Y128699D02*
X236333D01*
X236150Y128249D02*
X236333D01*
X236150Y127799D02*
X236333D01*
X236150Y127349D02*
X236333D01*
X236150Y126899D02*
X236333D01*
X236150Y126449D02*
X236333D01*
X236150Y125999D02*
X236333D01*
X236150Y125549D02*
X236333D01*
X236150Y125099D02*
X236333D01*
X236112Y124649D02*
X236333D01*
X235942Y124199D02*
X236333D01*
X235582Y123749D02*
X236333D01*
X235132Y123299D02*
X236333D01*
X234682Y122849D02*
X236333D01*
X234232Y122399D02*
X236333D01*
X233782Y121949D02*
X236333D01*
X233332Y121499D02*
X236333D01*
X232785Y121049D02*
X236333D01*
X218200Y120599D02*
X236333D01*
X218200Y120149D02*
X236333D01*
X218150Y119699D02*
X236333D01*
X230106Y119249D02*
X236333D01*
X231906Y118799D02*
X236333D01*
X232617Y118349D02*
X236333D01*
X233108Y117899D02*
X236333D01*
X233474Y117449D02*
X236333D01*
X233751Y116999D02*
X236333D01*
X233958Y116549D02*
X236333D01*
X234106Y116099D02*
X236333D01*
X234200Y115649D02*
X236333D01*
X234245Y115199D02*
X236333D01*
X234243Y114749D02*
X236333D01*
X234192Y114299D02*
X236333D01*
X234091Y113849D02*
X236333D01*
X233937Y113399D02*
X236333D01*
X233722Y112949D02*
X236333D01*
X233436Y112499D02*
X236333D01*
X233058Y112049D02*
X236333D01*
X232548Y111599D02*
X236333D01*
X231797Y111149D02*
X236333D01*
X223600Y110699D02*
X236333D01*
X223600Y110249D02*
X236333D01*
X223600Y109799D02*
X236333D01*
X223600Y109349D02*
X236333D01*
X217909Y119249D02*
X229894D01*
X171796Y220499D02*
X228250D01*
X171899Y220049D02*
X228250D01*
X193299Y219599D02*
X228250D01*
X194296Y219149D02*
X228250D01*
X194825Y218699D02*
X228250D01*
X195180Y218249D02*
X228250D01*
X195425Y217799D02*
X228250D01*
X195585Y217349D02*
X228250D01*
X221773Y216899D02*
X228250D01*
X222733Y216449D02*
X228250D01*
X223237Y215999D02*
X228250D01*
X223569Y215549D02*
X228250D01*
X223792Y215099D02*
X228250D01*
X223929Y214649D02*
X228250D01*
X223993Y214199D02*
X228250D01*
X223989Y213749D02*
X228250D01*
X223917Y213299D02*
X228250D01*
X223770Y212849D02*
X228250D01*
X223600Y108899D02*
X228250D01*
X223600Y108449D02*
X228250D01*
X223600Y107999D02*
X228250D01*
X223600Y107549D02*
X228250D01*
X223600Y107099D02*
X228250D01*
X223600Y106649D02*
X228250D01*
X223600Y106199D02*
X228250D01*
X223600Y105749D02*
X228250D01*
X223600Y105299D02*
X228250D01*
X223591Y104849D02*
X228250D01*
X223446Y104399D02*
X228250D01*
X223026Y103949D02*
X228250D01*
X190500Y103499D02*
X228250D01*
X190466Y103049D02*
X228250D01*
X190361Y102599D02*
X228250D01*
X190178Y102149D02*
X228250D01*
X189899Y101699D02*
X228250D01*
X222798Y174599D02*
X228235D01*
X223600Y111149D02*
X228203D01*
X213892Y118799D02*
X228094D01*
X223279Y175049D02*
X227522D01*
X223600Y111599D02*
X227452D01*
X213980Y118349D02*
X227383D01*
X218200Y121049D02*
X227215D01*
X223600Y112049D02*
X226942D01*
X213998Y117899D02*
X226892D01*
X218200Y121499D02*
X226668D01*
X223740Y205649D02*
X226633D01*
X223600Y112499D02*
X226564D01*
X213949Y117449D02*
X226526D01*
X223600Y112949D02*
X226278D01*
X213828Y116999D02*
X226249D01*
X223597Y175499D02*
X226239D01*
X218200Y121949D02*
X226218D01*
X224190Y205199D02*
X226174D01*
X223600Y113399D02*
X226063D01*
X213626Y116549D02*
X226042D01*
X224640Y204749D02*
X226014D01*
X223600Y113849D02*
X225909D01*
X222946Y116099D02*
X225894D01*
X223600Y114299D02*
X225808D01*
X223419Y115649D02*
X225800D01*
X218200Y122399D02*
X225768D01*
X223600Y114749D02*
X225757D01*
X223584Y115199D02*
X225755D01*
X218200Y122849D02*
X225318D01*
X223810Y175949D02*
X225216D01*
X218200Y123299D02*
X224868D01*
X223939Y176399D02*
X224712D01*
X218200Y123749D02*
X224418D01*
X223996Y176849D02*
X224262D01*
X218200Y124199D02*
X223968D01*
X218200Y124649D02*
X223518D01*
X218191Y125099D02*
X223068D01*
X218047Y125549D02*
X222652D01*
X217630Y125999D02*
X222428D01*
X213165Y126449D02*
X222351D01*
X213665Y131399D02*
X222350D01*
X213665Y130949D02*
X222350D01*
X213665Y130499D02*
X222350D01*
X213665Y130049D02*
X222350D01*
X213639Y129599D02*
X222350D01*
X213450Y129149D02*
X222350D01*
X213165Y128699D02*
X222350D01*
X213165Y128249D02*
X222350D01*
X213165Y127799D02*
X222350D01*
X213165Y127349D02*
X222350D01*
X213165Y126899D02*
X222350D01*
X213665Y131849D02*
X222318D01*
X213665Y132299D02*
X221868D01*
X213665Y132749D02*
X221418D01*
X213665Y133199D02*
X220968D01*
X213665Y133649D02*
X220518D01*
X218033Y211049D02*
X220462D01*
X195675Y216899D02*
X220227D01*
X213665Y134099D02*
X220068D01*
X217200Y174149D02*
X220067D01*
X213665Y134549D02*
X219618D01*
X201090Y195299D02*
X219313D01*
X217200Y174599D02*
X219202D01*
X213665Y134999D02*
X219168D01*
X200640Y195749D02*
X218861D01*
X217200Y175049D02*
X218721D01*
X213665Y135449D02*
X218718D01*
X200152Y196199D02*
X218409D01*
X217200Y175499D02*
X218403D01*
X213665Y135899D02*
X218268D01*
X217200Y175949D02*
X218162D01*
X199240Y196649D02*
X217957D01*
X213665Y136349D02*
X217818D01*
X217200Y176399D02*
X217712D01*
X171900Y197099D02*
X217505D01*
X213664Y136799D02*
X217368D01*
X217200Y176849D02*
X217262D01*
X171900Y197549D02*
X217053D01*
X171900Y197999D02*
X216601D01*
X204578Y198449D02*
X216150D01*
X205141Y198899D02*
X215698D01*
X205505Y199349D02*
X215246D01*
X203326Y103949D02*
X211674D01*
X203746Y104399D02*
X211254D01*
X203891Y104849D02*
X211109D01*
X203900Y110249D02*
X211100D01*
X203900Y109799D02*
X211100D01*
X203900Y109349D02*
X211100D01*
X203900Y108899D02*
X211100D01*
X203900Y108449D02*
X211100D01*
X203900Y107999D02*
X211100D01*
X203900Y107549D02*
X211100D01*
X203900Y107099D02*
X211100D01*
X203900Y106649D02*
X211100D01*
X203900Y106199D02*
X211100D01*
X203900Y105749D02*
X211100D01*
X203900Y105299D02*
X211100D01*
X203900Y110699D02*
X210685D01*
X203900Y111149D02*
X210235D01*
X203900Y111599D02*
X209785D01*
X203900Y112049D02*
X209335D01*
X203900Y112499D02*
X208885D01*
X195700Y216449D02*
X208748D01*
X203900Y112949D02*
X208435D01*
X195835Y215999D02*
X208111D01*
X203900Y113399D02*
X207985D01*
X196285Y215549D02*
X207728D01*
X203900Y113849D02*
X207535D01*
X205749Y199799D02*
X207485D01*
X196735Y215099D02*
X207479D01*
X197185Y214649D02*
X207116D01*
X203900Y114299D02*
X207085D01*
X197570Y214199D02*
X206787D01*
X203900Y114749D02*
X206635D01*
X197760Y213749D02*
X206585D01*
X197812Y213299D02*
X206480D01*
X197812Y212849D02*
X206459D01*
X205904Y200249D02*
X206421D01*
X203884Y115199D02*
X206185D01*
X201540Y194849D02*
X206026D01*
X203719Y115649D02*
X205857D01*
X203246Y116099D02*
X205694D01*
X199400Y117449D02*
X205650D01*
X199494Y116999D02*
X205650D01*
X199500Y116549D02*
X205650D01*
X199174Y117899D02*
X205513D01*
X201990Y194399D02*
X205467D01*
X198768Y118349D02*
X205268D01*
X198350Y118799D02*
X205161D01*
X202440Y193949D02*
X205055D01*
X202890Y193499D02*
X204644D01*
X203334Y193049D02*
X204243D01*
X199409Y119249D02*
X204091D01*
X203659Y192599D02*
X203953D01*
X199650Y119699D02*
X203850D01*
X203285Y121049D02*
X203800D01*
X199700Y120599D02*
X203800D01*
X199700Y120149D02*
X203800D01*
X200078Y198449D02*
X201422D01*
X200641Y198899D02*
X200859D01*
X195578Y198449D02*
X196922D01*
X196141Y198899D02*
X196359D01*
X187929Y116549D02*
X195335D01*
X176832Y116999D02*
X194944D01*
X177282Y117449D02*
X194734D01*
X178398Y117899D02*
X194653D01*
X179632Y118799D02*
X194650D01*
X179182Y118349D02*
X194650D01*
X182650Y212849D02*
X194318D01*
X182650Y213299D02*
X193868D01*
X191409Y119249D02*
X193591D01*
X191650Y119699D02*
X193350D01*
X191691Y125099D02*
X193309D01*
X191700Y124649D02*
X193300D01*
X191700Y124199D02*
X193300D01*
X191700Y123749D02*
X193300D01*
X191700Y123299D02*
X193300D01*
X191700Y122849D02*
X193300D01*
X191700Y122399D02*
X193300D01*
X191700Y121949D02*
X193300D01*
X191700Y121499D02*
X193300D01*
X191700Y121049D02*
X193300D01*
X191700Y120599D02*
X193300D01*
X191700Y120149D02*
X193300D01*
X182578Y198449D02*
X192422D01*
X188227Y116099D02*
X192054D01*
X190466Y103949D02*
X191974D01*
X173150Y156599D02*
X191952D01*
X173150Y156149D02*
X191952D01*
X173150Y155699D02*
X191952D01*
X173150Y155249D02*
X191952D01*
X173150Y154799D02*
X191952D01*
X173150Y154349D02*
X191952D01*
X173150Y153899D02*
X191952D01*
X173150Y153449D02*
X191952D01*
X180558Y152999D02*
X191952D01*
X181462Y152549D02*
X191952D01*
X181700Y152099D02*
X191952D01*
X181750Y151649D02*
X191952D01*
X181750Y151199D02*
X191952D01*
X181750Y150749D02*
X191952D01*
X181750Y150299D02*
X191952D01*
X181750Y149849D02*
X191952D01*
X181750Y149399D02*
X191952D01*
X181750Y148949D02*
X191952D01*
X181750Y148499D02*
X191952D01*
X181750Y148049D02*
X191952D01*
X183141Y198899D02*
X191859D01*
X181750Y147599D02*
X191765D01*
X188299Y219599D02*
X191701D01*
X188310Y115649D02*
X191581D01*
X190362Y104399D02*
X191554D01*
X183505Y199349D02*
X191495D01*
X188310Y115199D02*
X191416D01*
X190180Y104849D02*
X191409D01*
X188310Y114749D02*
X191400D01*
X188310Y114299D02*
X191400D01*
X188310Y113849D02*
X191400D01*
X188310Y113399D02*
X191400D01*
X188310Y112949D02*
X191400D01*
X188310Y112499D02*
X191400D01*
X188310Y112049D02*
X191400D01*
X188310Y111599D02*
X191400D01*
X188310Y111149D02*
X191400D01*
X188310Y110699D02*
X191400D01*
X188310Y110249D02*
X191400D01*
X188310Y109799D02*
X191400D01*
X188310Y109349D02*
X191400D01*
X188226Y108899D02*
X191400D01*
X187926Y108449D02*
X191400D01*
X175150Y107999D02*
X191400D01*
X175150Y107549D02*
X191400D01*
X175150Y107099D02*
X191400D01*
X175150Y106649D02*
X191400D01*
X188810Y106199D02*
X191400D01*
X189486Y105749D02*
X191400D01*
X189901Y105299D02*
X191400D01*
X181750Y147149D02*
X191315D01*
X181750Y146699D02*
X190865D01*
X181750Y146249D02*
X190415D01*
X181666Y145799D02*
X189965D01*
X189731Y157049D02*
X189798D01*
X181366Y145349D02*
X189515D01*
X173150Y144899D02*
X189065D01*
X173150Y144449D02*
X188615D01*
X183749Y199799D02*
X188369D01*
X183904Y200249D02*
X187918D01*
X183985Y200699D02*
X187468D01*
X180846Y157049D02*
X187239D01*
X183996Y201149D02*
X187081D01*
X182650Y212399D02*
X187005D01*
X183940Y201599D02*
X186888D01*
X182650Y204299D02*
X186835D01*
X182650Y203849D02*
X186835D01*
X182802Y203399D02*
X186835D01*
X183281Y202949D02*
X186835D01*
X183599Y202499D02*
X186835D01*
X183811Y202049D02*
X186835D01*
X182650Y204749D02*
X186819D01*
X171900Y219599D02*
X186701D01*
X182650Y211949D02*
X186588D01*
X181499Y157499D02*
X186586D01*
X182650Y205199D02*
X186519D01*
X182650Y211499D02*
X186444D01*
X182650Y211049D02*
X186435D01*
X182650Y210599D02*
X186435D01*
X182650Y210149D02*
X186435D01*
X182650Y209699D02*
X186435D01*
X182650Y209249D02*
X186435D01*
X182650Y208799D02*
X186435D01*
X182650Y208349D02*
X186435D01*
X182650Y207899D02*
X186435D01*
X182650Y207449D02*
X186435D01*
X182650Y206999D02*
X186435D01*
X182650Y206549D02*
X186435D01*
X182650Y206099D02*
X186435D01*
X182650Y205649D02*
X186435D01*
X181713Y157949D02*
X186372D01*
X183084Y166049D02*
X186350D01*
X182623Y165599D02*
X186337D01*
X181849Y165149D02*
X186335D01*
X181314Y164699D02*
X186335D01*
X181646Y164249D02*
X186335D01*
X181749Y163799D02*
X186335D01*
X181750Y163349D02*
X186335D01*
X181750Y162899D02*
X186335D01*
X181750Y162449D02*
X186335D01*
X181750Y161999D02*
X186335D01*
X181750Y161549D02*
X186335D01*
X181750Y161099D02*
X186335D01*
X181750Y160649D02*
X186335D01*
X181750Y160199D02*
X186335D01*
X181750Y159749D02*
X186335D01*
X181750Y159299D02*
X186335D01*
X181750Y158849D02*
X186335D01*
X181750Y158399D02*
X186335D01*
X175150Y106199D02*
X186190D01*
X183534Y166499D02*
X185874D01*
X182650Y213749D02*
X185866D01*
X171900Y219149D02*
X185704D01*
X180082Y119249D02*
X185591D01*
X175150Y105749D02*
X185514D01*
X183984Y166949D02*
X185454D01*
X180532Y119699D02*
X185350D01*
X184434Y167399D02*
X185309D01*
X185032Y124199D02*
X185300D01*
X184582Y123749D02*
X185300D01*
X184132Y123299D02*
X185300D01*
X183682Y122849D02*
X185300D01*
X183232Y122399D02*
X185300D01*
X182782Y121949D02*
X185300D01*
X182332Y121499D02*
X185300D01*
X181882Y121049D02*
X185300D01*
X181432Y120599D02*
X185300D01*
X180982Y120149D02*
X185300D01*
X183032Y214199D02*
X185276D01*
X171900Y218699D02*
X185175D01*
X175138Y105299D02*
X185099D01*
X183482Y214649D02*
X184890D01*
X175016Y104849D02*
X184820D01*
X171900Y218249D02*
X184820D01*
X174729Y104399D02*
X184638D01*
X174282Y103949D02*
X184534D01*
X171900Y217799D02*
X181982D01*
X171900Y217349D02*
X181515D01*
X171900Y216899D02*
X181065D01*
X180630Y184499D02*
X181000D01*
X180816Y178649D02*
X181000D01*
X171700Y178199D02*
X181000D01*
X171700Y177749D02*
X181000D01*
X171700Y177299D02*
X181000D01*
X171700Y176849D02*
X181000D01*
X171899Y184949D02*
X180938D01*
X180764Y176399D02*
X180863D01*
X171900Y216449D02*
X180615D01*
X171900Y185399D02*
X180268D01*
X171900Y215999D02*
X180165D01*
X171900Y185849D02*
X179818D01*
X171900Y215549D02*
X179726D01*
X171900Y186299D02*
X179506D01*
X171900Y215099D02*
X179462D01*
X171900Y198449D02*
X179422D01*
X171900Y186749D02*
X179369D01*
X171900Y214649D02*
X179357D01*
X171900Y214199D02*
X179350D01*
X171900Y213749D02*
X179350D01*
X171900Y213299D02*
X179350D01*
X171900Y212849D02*
X179350D01*
X171900Y212399D02*
X179350D01*
X171900Y211949D02*
X179350D01*
X171900Y211499D02*
X179350D01*
X171900Y211049D02*
X179350D01*
X171900Y210599D02*
X179350D01*
X171900Y210149D02*
X179350D01*
X171900Y209699D02*
X179350D01*
X171900Y209249D02*
X179350D01*
X171900Y208799D02*
X179350D01*
X171900Y208349D02*
X179350D01*
X171900Y207899D02*
X179350D01*
X171900Y207449D02*
X179350D01*
X171900Y206999D02*
X179350D01*
X171900Y206549D02*
X179350D01*
X171896Y206099D02*
X179350D01*
X171772Y205649D02*
X179350D01*
X171398Y205199D02*
X179350D01*
X133308Y204749D02*
X179350D01*
X132221Y204299D02*
X179350D01*
X101450Y203849D02*
X179350D01*
X101450Y203399D02*
X179198D01*
X171900Y187199D02*
X179075D01*
X171896Y198899D02*
X178859D01*
X101450Y202949D02*
X178719D01*
X171900Y187649D02*
X178639D01*
X177138Y191249D02*
X178562D01*
X171773Y199349D02*
X178495D01*
X101450Y202499D02*
X178401D01*
X171900Y188099D02*
X178347D01*
X176688Y190799D02*
X178296D01*
X171402Y199799D02*
X178251D01*
X101450Y202049D02*
X178189D01*
X171900Y188549D02*
X178155D01*
X176238Y190349D02*
X178123D01*
X101450Y200249D02*
X178096D01*
X101450Y201599D02*
X178060D01*
X171900Y188999D02*
X178042D01*
X175786Y189899D02*
X178027D01*
X101450Y200699D02*
X178015D01*
X101450Y201149D02*
X178004D01*
X175146Y189449D02*
X178000D01*
X172235Y170099D02*
X175000D01*
X172685Y169649D02*
X175000D01*
X172995Y169199D02*
X175000D01*
X173150Y165599D02*
X175000D01*
X173150Y165149D02*
X175000D01*
X173150Y166049D02*
X174874D01*
X173131Y168749D02*
X174772D01*
X173150Y166499D02*
X174672D01*
X173150Y168299D02*
X174608D01*
X173150Y166949D02*
X174551D01*
X173150Y167849D02*
X174520D01*
X173150Y167399D02*
X174502D01*
X173150Y152999D02*
X174442D01*
X171795Y184499D02*
X174370D01*
X171785Y170549D02*
X174302D01*
X171700Y176399D02*
X174236D01*
X171700Y178649D02*
X174184D01*
X173150Y157049D02*
X174154D01*
X171900Y196649D02*
X174091D01*
X171461Y184049D02*
X173953D01*
X171700Y170999D02*
X173928D01*
X171700Y175949D02*
X173904D01*
X171700Y179099D02*
X173884D01*
X160850Y183599D02*
X173809D01*
X171700Y171449D02*
X173804D01*
X171699Y175499D02*
X173801D01*
X160850Y183149D02*
X173800D01*
X160850Y182699D02*
X173800D01*
X160850Y182249D02*
X173800D01*
X160850Y181799D02*
X173800D01*
X160850Y181349D02*
X173800D01*
X160850Y180899D02*
X173800D01*
X171202Y180449D02*
X173800D01*
X171573Y179999D02*
X173800D01*
X171696Y179549D02*
X173800D01*
X171595Y175049D02*
X173800D01*
X171261Y174599D02*
X173800D01*
X169643Y174149D02*
X173800D01*
X169315Y173699D02*
X173800D01*
X168865Y173249D02*
X173800D01*
X168415Y172799D02*
X173800D01*
X171319Y172349D02*
X173800D01*
X171617Y171899D02*
X173800D01*
X173150Y164699D02*
X173686D01*
X173150Y145349D02*
X173634D01*
X173150Y152549D02*
X173538D01*
X173150Y157499D02*
X173501D01*
X171900Y196199D02*
X173459D01*
X173150Y164249D02*
X173354D01*
X173150Y145799D02*
X173334D01*
X173150Y152099D02*
X173300D01*
X173150Y157949D02*
X173287D01*
X173150Y163799D02*
X173251D01*
X173150Y163349D02*
X173250D01*
X173150Y162899D02*
X173250D01*
X173150Y162449D02*
X173250D01*
X173150Y161999D02*
X173250D01*
X173150Y161549D02*
X173250D01*
X173150Y161099D02*
X173250D01*
X173150Y160649D02*
X173250D01*
X173150Y160199D02*
X173250D01*
X173150Y159749D02*
X173250D01*
X173150Y159299D02*
X173250D01*
X173150Y158849D02*
X173250D01*
X173150Y158399D02*
X173250D01*
X173150Y151649D02*
X173250D01*
X173150Y151199D02*
X173250D01*
X173150Y150749D02*
X173250D01*
X173150Y150299D02*
X173250D01*
X173150Y149849D02*
X173250D01*
X173150Y149399D02*
X173250D01*
X173150Y148949D02*
X173250D01*
X173150Y148499D02*
X173250D01*
X173150Y148049D02*
X173250D01*
X173150Y147599D02*
X173250D01*
X173150Y147149D02*
X173250D01*
X173150Y146699D02*
X173250D01*
X173150Y146249D02*
X173250D01*
X171900Y195749D02*
X173062D01*
X171900Y195299D02*
X172796D01*
X171900Y194849D02*
X172460D01*
X137250Y163799D02*
X167100D01*
X137236Y163349D02*
X167100D01*
X137194Y162899D02*
X167100D01*
X137236Y164249D02*
X166918D01*
X162202Y180449D02*
X164798D01*
X162573Y179999D02*
X164427D01*
X162696Y179549D02*
X164304D01*
X162699Y175499D02*
X164301D01*
X162700Y179099D02*
X164300D01*
X162700Y178649D02*
X164300D01*
X162700Y178199D02*
X164300D01*
X162700Y177749D02*
X164300D01*
X162700Y177299D02*
X164300D01*
X162700Y176849D02*
X164300D01*
X162700Y176399D02*
X164300D01*
X162700Y175949D02*
X164300D01*
X134068Y205199D02*
X163602D01*
X101450Y199799D02*
X163598D01*
X160849Y184049D02*
X163539D01*
X137194Y164699D02*
X163486D01*
X134663Y205649D02*
X163228D01*
X101450Y199349D02*
X163227D01*
X160782Y184499D02*
X163205D01*
X150512Y220499D02*
X163204D01*
X135152Y206099D02*
X163104D01*
X101450Y198899D02*
X163104D01*
X160588Y184949D02*
X163101D01*
X150901Y220049D02*
X163101D01*
X151196Y219599D02*
X163100D01*
X151417Y219149D02*
X163100D01*
X151577Y218699D02*
X163100D01*
X151684Y218249D02*
X163100D01*
X151740Y217799D02*
X163100D01*
X151747Y217349D02*
X163100D01*
X151707Y216899D02*
X163100D01*
X151618Y216449D02*
X163100D01*
X151476Y215999D02*
X163100D01*
X151276Y215549D02*
X163100D01*
X151007Y215099D02*
X163100D01*
X150652Y214649D02*
X163100D01*
X150177Y214199D02*
X163100D01*
X149498Y213749D02*
X163100D01*
X148142Y213299D02*
X163100D01*
X137060Y212849D02*
X163100D01*
X137150Y212399D02*
X163100D01*
X137211Y211949D02*
X163100D01*
X137244Y211499D02*
X163100D01*
X137248Y211049D02*
X163100D01*
X137225Y210599D02*
X163100D01*
X137173Y210149D02*
X163100D01*
X137093Y209699D02*
X163100D01*
X136982Y209249D02*
X163100D01*
X136841Y208799D02*
X163100D01*
X136666Y208349D02*
X163100D01*
X136455Y207899D02*
X163100D01*
X136204Y207449D02*
X163100D01*
X135909Y206999D02*
X163100D01*
X135561Y206549D02*
X163100D01*
X101450Y198449D02*
X163100D01*
X101450Y197999D02*
X163100D01*
X101450Y197549D02*
X163100D01*
X101450Y197099D02*
X163100D01*
X101450Y196649D02*
X163100D01*
X149860Y196199D02*
X163100D01*
X150764Y195749D02*
X163100D01*
X151322Y195299D02*
X163100D01*
X151723Y194849D02*
X163100D01*
X152021Y194399D02*
X163100D01*
X152240Y193949D02*
X163100D01*
X152396Y193499D02*
X163100D01*
X152568Y193049D02*
X163100D01*
X153018Y192599D02*
X163100D01*
X153468Y192149D02*
X163100D01*
X153918Y191699D02*
X163100D01*
X154368Y191249D02*
X163100D01*
X154818Y190799D02*
X163100D01*
X155268Y190349D02*
X163100D01*
X155718Y189899D02*
X163100D01*
X156168Y189449D02*
X163100D01*
X156618Y188999D02*
X163100D01*
X157068Y188549D02*
X163100D01*
X157518Y188099D02*
X163100D01*
X157968Y187649D02*
X163100D01*
X158418Y187199D02*
X163100D01*
X158868Y186749D02*
X163100D01*
X159318Y186299D02*
X163100D01*
X159768Y185849D02*
X163100D01*
X160218Y185399D02*
X163100D01*
X137123Y165149D02*
X163018D01*
X137023Y165599D02*
X162568D01*
X136892Y166049D02*
X162118D01*
X136729Y166499D02*
X155874D01*
X136531Y166949D02*
X155454D01*
X136294Y167399D02*
X155309D01*
X101450Y171449D02*
X155300D01*
X130861Y170999D02*
X155300D01*
X132649Y170549D02*
X155300D01*
X133590Y170099D02*
X155300D01*
X134284Y169649D02*
X155300D01*
X134839Y169199D02*
X155300D01*
X135298Y168749D02*
X155300D01*
X135685Y168299D02*
X155300D01*
X136014Y167849D02*
X155300D01*
X101450Y171899D02*
X154074D01*
X101450Y172349D02*
X153535D01*
X101450Y172799D02*
X153085D01*
X101450Y173249D02*
X152637D01*
X101450Y173699D02*
X152333D01*
X101450Y174149D02*
X152184D01*
X151707Y178649D02*
X152150D01*
X101450Y178199D02*
X152150D01*
X101450Y177749D02*
X152150D01*
X101450Y177299D02*
X152150D01*
X101450Y176849D02*
X152150D01*
X101450Y176399D02*
X152150D01*
X101450Y175949D02*
X152150D01*
X101450Y175499D02*
X152150D01*
X101450Y175049D02*
X152150D01*
X101450Y174599D02*
X152150D01*
X137123Y162449D02*
X149957D01*
X137023Y161999D02*
X149413D01*
X136892Y161549D02*
X149225D01*
X117162Y154799D02*
X149216D01*
X136728Y161099D02*
X149200D01*
X136529Y160649D02*
X149200D01*
X136292Y160199D02*
X149200D01*
X136012Y159749D02*
X149200D01*
X135683Y159299D02*
X149200D01*
X135296Y158849D02*
X149200D01*
X134836Y158399D02*
X149200D01*
X134281Y157949D02*
X149200D01*
X133586Y157499D02*
X149200D01*
X132642Y157049D02*
X149200D01*
X130839Y156599D02*
X149200D01*
X117197Y156149D02*
X149200D01*
X117197Y155699D02*
X149200D01*
X117197Y155249D02*
X149200D01*
X141987Y196199D02*
X147226D01*
X136940Y213299D02*
X146858D01*
X142891Y195749D02*
X146323D01*
X143449Y195299D02*
X145764D01*
X136787Y213749D02*
X145502D01*
X141417Y178649D02*
X145380D01*
X143850Y194849D02*
X145364D01*
X144147Y194399D02*
X145066D01*
X144367Y193949D02*
X144846D01*
X136601Y214199D02*
X144823D01*
X142643Y179099D02*
X144778D01*
X144522Y193499D02*
X144691D01*
X142973Y185849D02*
X144657D01*
X143282Y179549D02*
X144575D01*
X143507Y185399D02*
X144545D01*
X143892Y184949D02*
X144543D01*
X144179Y184499D02*
X144543D01*
X144390Y184049D02*
X144543D01*
X144538Y183599D02*
X144543D01*
X144476Y181349D02*
X144543D01*
X144300Y180899D02*
X144543D01*
X144056Y180449D02*
X144543D01*
X143727Y179999D02*
X144543D01*
X109750Y220499D02*
X144488D01*
X136377Y214649D02*
X144348D01*
X142139Y186299D02*
X144177D01*
X109750Y220049D02*
X144099D01*
X136113Y215099D02*
X143993D01*
X109750Y219599D02*
X143804D01*
X101450Y186749D02*
X143727D01*
X135801Y215549D02*
X143724D01*
X109750Y219149D02*
X143583D01*
X135435Y215999D02*
X143524D01*
X109750Y218699D02*
X143423D01*
X135001Y216449D02*
X143382D01*
X131697Y218249D02*
X143316D01*
X134482Y216899D02*
X143293D01*
X101450Y187199D02*
X143277D01*
X133003Y217799D02*
X143260D01*
X133841Y217349D02*
X143253D01*
X129032Y151199D02*
X142850D01*
X128582Y150749D02*
X142850D01*
X128150Y150299D02*
X142850D01*
X128150Y149849D02*
X142850D01*
X128150Y149399D02*
X142850D01*
X128150Y148949D02*
X142850D01*
X128150Y148499D02*
X142850D01*
X128150Y148049D02*
X142850D01*
X128644Y147599D02*
X142850D01*
X129006Y147149D02*
X142850D01*
X129250Y146699D02*
X142850D01*
X129405Y146249D02*
X142850D01*
X129485Y145799D02*
X142850D01*
X129496Y145349D02*
X142850D01*
X129439Y144899D02*
X142850D01*
X129310Y144449D02*
X142850D01*
X129097Y143999D02*
X142850D01*
X128779Y143549D02*
X142850D01*
X128298Y143099D02*
X142850D01*
X127433Y142649D02*
X142850D01*
X101450Y142199D02*
X142850D01*
X101450Y141749D02*
X142850D01*
X101450Y141299D02*
X142850D01*
X101450Y140849D02*
X142850D01*
X101450Y140399D02*
X142850D01*
X101450Y139949D02*
X142850D01*
X101450Y139499D02*
X142850D01*
X101450Y139049D02*
X142850D01*
X101450Y138599D02*
X142850D01*
X101450Y138149D02*
X142850D01*
X101450Y137699D02*
X142850D01*
X101450Y137249D02*
X142850D01*
X101450Y136799D02*
X142850D01*
X101450Y136349D02*
X142850D01*
X101450Y135899D02*
X142850D01*
X101450Y135449D02*
X142850D01*
X137165Y134999D02*
X142850D01*
X138064Y134549D02*
X142850D01*
X138657Y134099D02*
X142850D01*
X139100Y133649D02*
X142850D01*
X139443Y133199D02*
X142850D01*
X139711Y132749D02*
X142850D01*
X139916Y132299D02*
X142850D01*
X140069Y131849D02*
X142850D01*
X140174Y131399D02*
X142850D01*
X140233Y130949D02*
X142850D01*
X140250Y130499D02*
X142850D01*
X140223Y130049D02*
X142850D01*
X140154Y129599D02*
X142850D01*
X140039Y129149D02*
X142850D01*
X139874Y128699D02*
X142850D01*
X139655Y128249D02*
X142850D01*
X139372Y127799D02*
X142850D01*
X139009Y127349D02*
X142850D01*
X138538Y126899D02*
X142850D01*
X137896Y126449D02*
X142850D01*
X136860Y125999D02*
X142850D01*
X119749Y125549D02*
X142850D01*
X119750Y125099D02*
X142850D01*
X119750Y124649D02*
X142850D01*
X119750Y124199D02*
X142850D01*
X119750Y123749D02*
X142850D01*
X119750Y123299D02*
X142850D01*
X119750Y122849D02*
X142850D01*
X119750Y122399D02*
X142850D01*
X119750Y121949D02*
X142850D01*
X119750Y121499D02*
X142850D01*
X101450Y187649D02*
X142827D01*
X119750Y121049D02*
X142715D01*
X101450Y188099D02*
X142377D01*
X119750Y120599D02*
X142265D01*
X141670Y188549D02*
X141927D01*
X119750Y120149D02*
X141815D01*
X119750Y119699D02*
X141365D01*
X119724Y119249D02*
X140915D01*
X119535Y118799D02*
X140465D01*
X118987Y118349D02*
X140015D01*
X101450Y178649D02*
X139923D01*
X101450Y188549D02*
X139670D01*
X101450Y117899D02*
X139616D01*
X126335Y107999D02*
X139428D01*
X101450Y117449D02*
X139412D01*
X101450Y196199D02*
X139353D01*
X138106Y108449D02*
X139351D01*
X101450Y116999D02*
X139350D01*
X138109Y116549D02*
X139350D01*
X138407Y116099D02*
X139350D01*
X138490Y115649D02*
X139350D01*
X138490Y115199D02*
X139350D01*
X138490Y114749D02*
X139350D01*
X138490Y114299D02*
X139350D01*
X138490Y113849D02*
X139350D01*
X138490Y113399D02*
X139350D01*
X138490Y112949D02*
X139350D01*
X138490Y112499D02*
X139350D01*
X138490Y112049D02*
X139350D01*
X138490Y111599D02*
X139350D01*
X138490Y111149D02*
X139350D01*
X138490Y110699D02*
X139350D01*
X138490Y110249D02*
X139350D01*
X138490Y109799D02*
X139350D01*
X138490Y109349D02*
X139350D01*
X138406Y108899D02*
X139350D01*
X101450Y186299D02*
X139201D01*
X101450Y179099D02*
X138697D01*
X101450Y188999D02*
X138600D01*
X101450Y195749D02*
X138449D01*
X101450Y185849D02*
X138367D01*
X101450Y179549D02*
X138058D01*
X101450Y189449D02*
X137994D01*
X101450Y195299D02*
X137891D01*
X101450Y185399D02*
X137833D01*
X101450Y179999D02*
X137613D01*
X101450Y189899D02*
X137566D01*
X101450Y194849D02*
X137490D01*
X101450Y184949D02*
X137448D01*
X101450Y180449D02*
X137284D01*
X101450Y190349D02*
X137249D01*
X101450Y194399D02*
X137193D01*
X101450Y184499D02*
X137161D01*
X101450Y180899D02*
X137040D01*
X101450Y190799D02*
X137014D01*
X101450Y193949D02*
X136973D01*
X101450Y184049D02*
X136950D01*
X101450Y181349D02*
X136864D01*
X101450Y191249D02*
X136846D01*
X101450Y193499D02*
X136818D01*
X101450Y183599D02*
X136802D01*
X101450Y181799D02*
X136747D01*
X101450Y191699D02*
X136736D01*
X101450Y193049D02*
X136719D01*
X101450Y183149D02*
X136711D01*
X101450Y182249D02*
X136684D01*
X101450Y192149D02*
X136679D01*
X101450Y192599D02*
X136674D01*
X101450Y182699D02*
X136672D01*
X119646Y125999D02*
X134140D01*
X109607Y134999D02*
X133835D01*
X119314Y126449D02*
X133104D01*
X110505Y134549D02*
X132936D01*
X110980Y126899D02*
X132462D01*
X111099Y134099D02*
X132343D01*
X111451Y127349D02*
X131991D01*
X111542Y133649D02*
X131900D01*
X111814Y127799D02*
X131628D01*
X111885Y133199D02*
X131557D01*
X112097Y128249D02*
X131345D01*
X112152Y132749D02*
X131289D01*
X112316Y128699D02*
X131126D01*
X112358Y132299D02*
X131084D01*
X112480Y129149D02*
X130961D01*
X112511Y131849D02*
X130931D01*
X112595Y129599D02*
X130846D01*
X112615Y131399D02*
X130826D01*
X112665Y130049D02*
X130777D01*
X112675Y130949D02*
X130767D01*
X112691Y130499D02*
X130750D01*
X117197Y156599D02*
X129161D01*
X101450Y170999D02*
X129139D01*
X109750Y218249D02*
X128303D01*
X101450Y204299D02*
X127779D01*
X116979Y154349D02*
X127549D01*
X117197Y157049D02*
X127358D01*
X101450Y170549D02*
X127351D01*
X117480Y153899D02*
X127065D01*
X109750Y217799D02*
X126997D01*
X101450Y204749D02*
X126692D01*
X118379Y153449D02*
X126615D01*
X117197Y157499D02*
X126414D01*
X101450Y170099D02*
X126410D01*
X118972Y152999D02*
X126165D01*
X109750Y217349D02*
X126159D01*
X101450Y205199D02*
X125932D01*
X117197Y157949D02*
X125719D01*
X101450Y169649D02*
X125716D01*
X119415Y152549D02*
X125715D01*
X101450Y142649D02*
X125567D01*
X109750Y216899D02*
X125518D01*
X101450Y205649D02*
X125337D01*
X119758Y152099D02*
X125269D01*
X117197Y158399D02*
X125164D01*
X101450Y169199D02*
X125161D01*
X109750Y216449D02*
X124999D01*
X120026Y151649D02*
X124983D01*
X120231Y151199D02*
X124862D01*
X120384Y150749D02*
X124850D01*
X120489Y150299D02*
X124850D01*
X120548Y149849D02*
X124850D01*
X120565Y149399D02*
X124850D01*
X120538Y148949D02*
X124850D01*
X120469Y148499D02*
X124850D01*
X120354Y148049D02*
X124850D01*
X101450Y206099D02*
X124848D01*
X117197Y158849D02*
X124704D01*
X101450Y143099D02*
X124702D01*
X101450Y168749D02*
X124702D01*
X116793Y116549D02*
X124571D01*
X109750Y215999D02*
X124565D01*
X101450Y206549D02*
X124439D01*
X120189Y147599D02*
X124356D01*
X117197Y159299D02*
X124317D01*
X101450Y168299D02*
X124315D01*
X117761Y116099D02*
X124273D01*
X101450Y143549D02*
X124221D01*
X109750Y215549D02*
X124199D01*
X118355Y115649D02*
X124190D01*
X118783Y115199D02*
X124190D01*
X119106Y114749D02*
X124190D01*
X119351Y114299D02*
X124190D01*
X120451Y113849D02*
X124190D01*
X120935Y113399D02*
X124190D01*
X121385Y112949D02*
X124190D01*
X121835Y112499D02*
X124190D01*
X122285Y112049D02*
X124190D01*
X122735Y111599D02*
X124190D01*
X123185Y111149D02*
X124190D01*
X123635Y110699D02*
X124190D01*
X124085Y110249D02*
X124190D01*
X101450Y206999D02*
X124091D01*
X119970Y147149D02*
X123994D01*
X117197Y159749D02*
X123988D01*
X101450Y167849D02*
X123986D01*
X101450Y143999D02*
X123903D01*
X109750Y215099D02*
X123887D01*
X101450Y207449D02*
X123796D01*
X119687Y146699D02*
X123750D01*
X117197Y160199D02*
X123708D01*
X101450Y167399D02*
X123706D01*
X101450Y144449D02*
X123690D01*
X109750Y214649D02*
X123623D01*
X119324Y146249D02*
X123595D01*
X117175Y144899D02*
X123561D01*
X101450Y207899D02*
X123545D01*
X118853Y145799D02*
X123515D01*
X118211Y145349D02*
X123504D01*
X117197Y160649D02*
X123471D01*
X101450Y166949D02*
X123469D01*
X109750Y214199D02*
X123399D01*
X101450Y208349D02*
X123334D01*
X117197Y161099D02*
X123272D01*
X101450Y166499D02*
X123271D01*
X109750Y213749D02*
X123213D01*
X101450Y208799D02*
X123159D01*
X117197Y161549D02*
X123108D01*
X101450Y166049D02*
X123108D01*
X109750Y213299D02*
X123060D01*
X101450Y209249D02*
X123018D01*
X117197Y161999D02*
X122977D01*
X101450Y165599D02*
X122977D01*
X109750Y212849D02*
X122940D01*
X101450Y209699D02*
X122907D01*
X117197Y162449D02*
X122877D01*
X101450Y165149D02*
X122877D01*
X101450Y212399D02*
X122850D01*
X101450Y210149D02*
X122827D01*
X117197Y162899D02*
X122806D01*
X101450Y164699D02*
X122806D01*
X101450Y211949D02*
X122789D01*
X101450Y210599D02*
X122775D01*
X117151Y163349D02*
X122764D01*
X116461Y164249D02*
X122764D01*
X101450Y211499D02*
X122756D01*
X101450Y211049D02*
X122752D01*
X116948Y163799D02*
X122750D01*
X118352Y109349D02*
X120318D01*
X118781Y109799D02*
X119868D01*
X119105Y110249D02*
X119418D01*
X117757Y108899D02*
X118308D01*
X116784Y108449D02*
X117516D01*
X109750Y101699D02*
X117323D01*
X109750Y107999D02*
X116988D01*
X109750Y102149D02*
X116848D01*
X109750Y107549D02*
X116599D01*
X109750Y102599D02*
X116493D01*
X109750Y107099D02*
X116304D01*
X109750Y103049D02*
X116224D01*
X109750Y106649D02*
X116083D01*
X109750Y103499D02*
X116024D01*
X109750Y106199D02*
X115923D01*
X109750Y103949D02*
X115882D01*
X109750Y105749D02*
X115816D01*
X109750Y104399D02*
X115793D01*
X109750Y105299D02*
X115760D01*
X109750Y104849D02*
X115753D01*
X101450Y144899D02*
X114455D01*
X109750Y108449D02*
X114216D01*
X101450Y116549D02*
X114207D01*
X101450Y145349D02*
X113419D01*
X101450Y153449D02*
X113251D01*
X109750Y108899D02*
X113243D01*
X101450Y116099D02*
X113239D01*
X101450Y145799D02*
X112777D01*
X101450Y152999D02*
X112658D01*
X101450Y109349D02*
X112648D01*
X101450Y115649D02*
X112645D01*
X101450Y146249D02*
X112306D01*
X101450Y109799D02*
X112219D01*
X101450Y115199D02*
X112217D01*
X101450Y152549D02*
X112215D01*
X101450Y118349D02*
X112013D01*
X101450Y146699D02*
X111943D01*
X101450Y110249D02*
X111895D01*
X101450Y114749D02*
X111894D01*
X101450Y152099D02*
X111872D01*
X110338Y126449D02*
X111686D01*
X101450Y147149D02*
X111660D01*
X101450Y110699D02*
X111651D01*
X101450Y114299D02*
X111649D01*
X101450Y151649D02*
X111604D01*
X101450Y111149D02*
X111471D01*
X101450Y113849D02*
X111470D01*
X101450Y118799D02*
X111465D01*
X101450Y147599D02*
X111441D01*
X101450Y151199D02*
X111399D01*
X109301Y125999D02*
X111354D01*
X101450Y111599D02*
X111347D01*
X101450Y113399D02*
X111346D01*
X101450Y148049D02*
X111276D01*
X101450Y119249D02*
X111276D01*
X101450Y112049D02*
X111274D01*
X101450Y112949D02*
X111274D01*
X101450Y125549D02*
X111251D01*
X101450Y125099D02*
X111250D01*
X101450Y124649D02*
X111250D01*
X101450Y124199D02*
X111250D01*
X101450Y123749D02*
X111250D01*
X101450Y123299D02*
X111250D01*
X101450Y122849D02*
X111250D01*
X101450Y122399D02*
X111250D01*
X101450Y121949D02*
X111250D01*
X101450Y121499D02*
X111250D01*
X101450Y121049D02*
X111250D01*
X101450Y120599D02*
X111250D01*
X101450Y120149D02*
X111250D01*
X101450Y119699D02*
X111250D01*
X101450Y112499D02*
X111250D01*
X101450Y150749D02*
X111246D01*
X101450Y148499D02*
X111161D01*
X101450Y150299D02*
X111141D01*
X101450Y148949D02*
X111092D01*
X101450Y149849D02*
X111082D01*
X101450Y149399D02*
X111065D01*
X101450Y125999D02*
X106582D01*
X101450Y134999D02*
X106277D01*
X101450Y126449D02*
X105545D01*
X101450Y134549D02*
X105378D01*
X101450Y126899D02*
X104903D01*
X101450Y134099D02*
X104784D01*
X101450Y127349D02*
X104432D01*
X101450Y133649D02*
X104342D01*
X101450Y127799D02*
X104070D01*
X101450Y133199D02*
X103999D01*
X101450Y128249D02*
X103786D01*
X101450Y132749D02*
X103731D01*
X101450Y128699D02*
X103567D01*
X101450Y132299D02*
X103525D01*
X101450Y129149D02*
X103403D01*
X101450Y131849D02*
X103373D01*
X101450Y129599D02*
X103288D01*
X101450Y131399D02*
X103268D01*
X101450Y130049D02*
X103218D01*
X101450Y130949D02*
X103208D01*
X101450Y130499D02*
X103192D01*
X237783Y100000D02*
Y222037D01*
X100000*
Y162987*
X115747*
Y155113*
X100000*
Y100000*
X237783*
G74*
X0Y0D02*
M02*
